<svg class="marks" width="646" height="334" viewBox="0 0 646 334" version="1.1" xmlns="http://www.w3.org/2000/svg" xmlns:xlink="http://www.w3.org/1999/xlink"><g transform="translate(41,11)"><g class="mark-group role-frame root"><g transform="translate(0,0)"><path class="background" d="M0.5,0.5h600v300h-600Z" style="fill: none; stroke: #ddd; stroke-opacity: 0;"></path><g><g class="mark-rect role-mark layer_0_marks"><path d="M470,48.5625h60.00000000000001v251.4375h-60.00000000000001Z" style="fill: gray;"></path><path d="M403.3333333333333,62.625h60.00000000000001v237.375h-60.00000000000001Z" style="fill: gray;"></path><path d="M336.6666666666667,69.375h60.00000000000001v230.625h-60.00000000000001Z" style="fill: gray;"></path><path d="M270,73.125h60.00000000000001v226.875h-60.00000000000001Z" style="fill: gray;"></path><path d="M203.33333333333331,90h60.00000000000001v210h-60.00000000000001Z" style="fill: gray;"></path><path d="M136.66666666666666,118.125h60.00000000000001v181.875h-60.00000000000001Z" style="fill: gray;"></path><path d="M69.99999999999999,159.84375h60.00000000000001v140.15625h-60.00000000000001Z" style="fill: gray;"></path><path d="M3.3333333333333144,185.625h60.00000000000001v114.375h-60.00000000000001Z" style="fill: gray;"></path><path d="M536.6666666666667,58.125h60.00000000000001v241.875h-60.00000000000001Z" style="fill: gray;"></path></g><g class="mark-text role-mark layer_1_marks"><text text-anchor="middle" transform="translate(500,43.5625)" style="font: 13px sans-serif; fill: black;">$670,500</text><text text-anchor="middle" transform="translate(433.3333333333333,57.625)" style="font: 13px sans-serif; fill: black;">$633,000</text><text text-anchor="middle" transform="translate(366.6666666666667,64.375)" style="font: 13px sans-serif; fill: black;">$615,000</text><text text-anchor="middle" transform="translate(300,68.125)" style="font: 13px sans-serif; fill: black;">$605,000</text><text text-anchor="middle" transform="translate(233.33333333333331,85)" style="font: 13px sans-serif; fill: black;">$560,000</text><text text-anchor="middle" transform="translate(166.66666666666666,113.125)" style="font: 13px sans-serif; fill: black;">$485,000</text><text text-anchor="middle" transform="translate(99.99999999999999,154.84375)" style="font: 13px sans-serif; fill: black;">$373,750</text><text text-anchor="middle" transform="translate(33.333333333333314,180.625)" style="font: 13px sans-serif; fill: black;">$305,000</text><text text-anchor="middle" transform="translate(566.6666666666667,53.125)" style="font: 13px sans-serif; fill: black;">$645,000</text></g><g class="mark-group role-axis"><g transform="translate(0.5,300.5)"><path class="background" d="M0,0h0v0h0Z" style="pointer-events: none; fill: none;"></path><g><g class="mark-rule role-axis-tick" style="pointer-events: none;"><line transform="translate(32,0)" x2="0" y2="5" style="fill: none; stroke: #888; stroke-width: 1; opacity: 1;"></line><line transform="translate(99,0)" x2="0" y2="5" style="fill: none; stroke: #888; stroke-width: 1; opacity: 1;"></line><line transform="translate(166,0)" x2="0" y2="5" style="fill: none; stroke: #888; stroke-width: 1; opacity: 1;"></line><line transform="translate(232,0)" x2="0" y2="5" style="fill: none; stroke: #888; stroke-width: 1; opacity: 1;"></line><line transform="translate(299,0)" x2="0" y2="5" style="fill: none; stroke: #888; stroke-width: 1; opacity: 1;"></line><line transform="translate(366,0)" x2="0" y2="5" style="fill: none; stroke: #888; stroke-width: 1; opacity: 1;"></line><line transform="translate(432,0)" x2="0" y2="5" style="fill: none; stroke: #888; stroke-width: 1; opacity: 1;"></line><line transform="translate(499,0)" x2="0" y2="5" style="fill: none; stroke: #888; stroke-width: 1; opacity: 1;"></line><line transform="translate(566,0)" x2="0" y2="5" style="fill: none; stroke: #888; stroke-width: 1; opacity: 1;"></line></g><g class="mark-text role-axis-label" style="pointer-events: none;"><text text-anchor="middle" transform="translate(32.333333333333314,15)" style="font: 10px sans-serif; fill: #000; opacity: 1;">2011</text><text text-anchor="middle" transform="translate(98.99999999999999,15)" style="font: 10px sans-serif; fill: #000; opacity: 1;">2012</text><text text-anchor="middle" transform="translate(165.66666666666666,15)" style="font: 10px sans-serif; fill: #000; opacity: 1;">2013</text><text text-anchor="middle" transform="translate(232.33333333333331,15)" style="font: 10px sans-serif; fill: #000; opacity: 1;">2014</text><text text-anchor="middle" transform="translate(299,15)" style="font: 10px sans-serif; fill: #000; opacity: 1;">2015</text><text text-anchor="middle" transform="translate(365.6666666666667,15)" style="font: 10px sans-serif; fill: #000; opacity: 1;">2016</text><text text-anchor="middle" transform="translate(432.3333333333333,15)" style="font: 10px sans-serif; fill: #000; opacity: 1;">2017</text><text text-anchor="middle" transform="translate(499,15)" style="font: 10px sans-serif; fill: #000; opacity: 1;">2018</text><text text-anchor="middle" transform="translate(565.6666666666667,15)" style="font: 10px sans-serif; fill: #000; opacity: 1;">2019</text></g><g class="mark-rule role-axis-domain" style="pointer-events: none;"><line transform="translate(0,0)" x2="600" y2="0" style="fill: none; stroke: #888; stroke-width: 1; opacity: 1;"></line></g></g></g></g><g class="mark-group role-axis"><g transform="translate(0.5,0.5)"><path class="background" d="M0,0h0v0h0Z" style="pointer-events: none; fill: none;"></path><g><g class="mark-rule role-axis-tick" style="pointer-events: none;"><line transform="translate(0,300)" x2="-5" y2="0" style="fill: none; stroke: #888; stroke-width: 1; opacity: 1;"></line><line transform="translate(0,263)" x2="-5" y2="0" style="fill: none; stroke: #888; stroke-width: 1; opacity: 1;"></line><line transform="translate(0,225)" x2="-5" y2="0" style="fill: none; stroke: #888; stroke-width: 1; opacity: 1;"></line><line transform="translate(0,188)" x2="-5" y2="0" style="fill: none; stroke: #888; stroke-width: 1; opacity: 1;"></line><line transform="translate(0,150)" x2="-5" y2="0" style="fill: none; stroke: #888; stroke-width: 1; opacity: 1;"></line><line transform="translate(0,113)" x2="-5" y2="0" style="fill: none; stroke: #888; stroke-width: 1; opacity: 1;"></line><line transform="translate(0,75)" x2="-5" y2="0" style="fill: none; stroke: #888; stroke-width: 1; opacity: 1;"></line><line transform="translate(0,38)" x2="-5" y2="0" style="fill: none; stroke: #888; stroke-width: 1; opacity: 1;"></line><line transform="translate(0,0)" x2="-5" y2="0" style="fill: none; stroke: #888; stroke-width: 1; opacity: 1;"></line></g><g class="mark-text role-axis-label" style="pointer-events: none;"><text text-anchor="end" transform="translate(-7,303)" style="font: 10px sans-serif; fill: #000; opacity: 1;">$0k</text><text text-anchor="end" transform="translate(-7,265.5)" style="font: 10px sans-serif; fill: #000; opacity: 1;">$100k</text><text text-anchor="end" transform="translate(-7,228)" style="font: 10px sans-serif; fill: #000; opacity: 1;">$200k</text><text text-anchor="end" transform="translate(-7,190.5)" style="font: 10px sans-serif; fill: #000; opacity: 1;">$300k</text><text text-anchor="end" transform="translate(-7,153)" style="font: 10px sans-serif; fill: #000; opacity: 1;">$400k</text><text text-anchor="end" transform="translate(-7,115.5)" style="font: 10px sans-serif; fill: #000; opacity: 1;">$500k</text><text text-anchor="end" transform="translate(-7,78)" style="font: 10px sans-serif; fill: #000; opacity: 1;">$600k</text><text text-anchor="end" transform="translate(-7,40.5)" style="font: 10px sans-serif; fill: #000; opacity: 1;">$700k</text><text text-anchor="end" transform="translate(-7,3)" style="font: 10px sans-serif; fill: #000; opacity: 1;">$800k</text></g><g class="mark-rule role-axis-domain" style="pointer-events: none;"><line transform="translate(0,300)" x2="0" y2="-300" style="fill: none; stroke: #888; stroke-width: 1; opacity: 1;"></line></g></g></g></g></g></g></g></g></svg>