<svg class="marks" width="640" height="334" viewBox="0 0 640 334" version="1.1" xmlns="http://www.w3.org/2000/svg" xmlns:xlink="http://www.w3.org/1999/xlink"><g transform="translate(35,11)"><g class="mark-group role-frame root"><g transform="translate(0,0)"><path class="background" d="M0.5,0.5h600v300h-600Z" style="fill: none; stroke: #ddd; stroke-opacity: 0;"></path><g><g class="mark-rect role-mark layer_0_marks"><path d="M536.6666666666667,126.5h60.00000000000001v173.5h-60.00000000000001Z" style="fill: gray;"></path><path d="M470,79.5h60.00000000000001v220.5h-60.00000000000001Z" style="fill: gray;"></path><path d="M403.3333333333333,136.5h60.00000000000001v163.5h-60.00000000000001Z" style="fill: gray;"></path><path d="M336.6666666666667,92h60.00000000000001v208h-60.00000000000001Z" style="fill: gray;"></path><path d="M270,82h60.00000000000001v218h-60.00000000000001Z" style="fill: gray;"></path><path d="M203.33333333333331,115h60.00000000000001v185h-60.00000000000001Z" style="fill: gray;"></path><path d="M136.66666666666666,72h60.00000000000001v228h-60.00000000000001Z" style="fill: gray;"></path><path d="M69.99999999999999,67.5h60.00000000000001v232.5h-60.00000000000001Z" style="fill: gray;"></path><path d="M3.3333333333333144,286.5h60.00000000000001v13.5h-60.00000000000001Z" style="fill: gray;"></path></g><g class="mark-text role-mark layer_1_marks"><text text-anchor="middle" transform="translate(566.6666666666667,120.5)" style="font: 20px sans-serif; fill: black;">347</text><text text-anchor="middle" transform="translate(500,73.5)" style="font: 20px sans-serif; fill: black;">441</text><text text-anchor="middle" transform="translate(433.3333333333333,130.5)" style="font: 20px sans-serif; fill: black;">327</text><text text-anchor="middle" transform="translate(366.6666666666667,86)" style="font: 20px sans-serif; fill: black;">416</text><text text-anchor="middle" transform="translate(300,76)" style="font: 20px sans-serif; fill: black;">436</text><text text-anchor="middle" transform="translate(233.33333333333331,109)" style="font: 20px sans-serif; fill: black;">370</text><text text-anchor="middle" transform="translate(166.66666666666666,66)" style="font: 20px sans-serif; fill: black;">456</text><text text-anchor="middle" transform="translate(99.99999999999999,61.5)" style="font: 20px sans-serif; fill: black;">465</text><text text-anchor="middle" transform="translate(33.333333333333314,280.5)" style="font: 20px sans-serif; fill: black;">27</text></g><g class="mark-group role-axis"><g transform="translate(0.5,300.5)"><path class="background" d="M0,0h0v0h0Z" style="pointer-events: none; fill: none;"></path><g><g class="mark-rule role-axis-tick" style="pointer-events: none;"><line transform="translate(32,0)" x2="0" y2="5" style="fill: none; stroke: #888; stroke-width: 1; opacity: 1;"></line><line transform="translate(99,0)" x2="0" y2="5" style="fill: none; stroke: #888; stroke-width: 1; opacity: 1;"></line><line transform="translate(166,0)" x2="0" y2="5" style="fill: none; stroke: #888; stroke-width: 1; opacity: 1;"></line><line transform="translate(232,0)" x2="0" y2="5" style="fill: none; stroke: #888; stroke-width: 1; opacity: 1;"></line><line transform="translate(299,0)" x2="0" y2="5" style="fill: none; stroke: #888; stroke-width: 1; opacity: 1;"></line><line transform="translate(366,0)" x2="0" y2="5" style="fill: none; stroke: #888; stroke-width: 1; opacity: 1;"></line><line transform="translate(432,0)" x2="0" y2="5" style="fill: none; stroke: #888; stroke-width: 1; opacity: 1;"></line><line transform="translate(499,0)" x2="0" y2="5" style="fill: none; stroke: #888; stroke-width: 1; opacity: 1;"></line><line transform="translate(566,0)" x2="0" y2="5" style="fill: none; stroke: #888; stroke-width: 1; opacity: 1;"></line></g><g class="mark-text role-axis-label" style="pointer-events: none;"><text text-anchor="middle" transform="translate(32.333333333333314,15)" style="font: 10px sans-serif; fill: #000; opacity: 1;">1969</text><text text-anchor="middle" transform="translate(98.99999999999999,15)" style="font: 10px sans-serif; fill: #000; opacity: 1;">2011</text><text text-anchor="middle" transform="translate(165.66666666666666,15)" style="font: 10px sans-serif; fill: #000; opacity: 1;">2012</text><text text-anchor="middle" transform="translate(232.33333333333331,15)" style="font: 10px sans-serif; fill: #000; opacity: 1;">2013</text><text text-anchor="middle" transform="translate(299,15)" style="font: 10px sans-serif; fill: #000; opacity: 1;">2014</text><text text-anchor="middle" transform="translate(365.6666666666667,15)" style="font: 10px sans-serif; fill: #000; opacity: 1;">2015</text><text text-anchor="middle" transform="translate(432.3333333333333,15)" style="font: 10px sans-serif; fill: #000; opacity: 1;">2016</text><text text-anchor="middle" transform="translate(499,15)" style="font: 10px sans-serif; fill: #000; opacity: 1;">2017</text><text text-anchor="middle" transform="translate(565.6666666666667,15)" style="font: 10px sans-serif; fill: #000; opacity: 1;">2018</text></g><g class="mark-rule role-axis-domain" style="pointer-events: none;"><line transform="translate(0,0)" x2="600" y2="0" style="fill: none; stroke: #888; stroke-width: 1; opacity: 1;"></line></g></g></g></g><g class="mark-group role-axis"><g transform="translate(0.5,0.5)"><path class="background" d="M0,0h0v0h0Z" style="pointer-events: none; fill: none;"></path><g><g class="mark-rule role-axis-tick" style="pointer-events: none;"><line transform="translate(0,300)" x2="-5" y2="0" style="fill: none; stroke: #888; stroke-width: 1; opacity: 1;"></line><line transform="translate(0,250)" x2="-5" y2="0" style="fill: none; stroke: #888; stroke-width: 1; opacity: 1;"></line><line transform="translate(0,200)" x2="-5" y2="0" style="fill: none; stroke: #888; stroke-width: 1; opacity: 1;"></line><line transform="translate(0,150)" x2="-5" y2="0" style="fill: none; stroke: #888; stroke-width: 1; opacity: 1;"></line><line transform="translate(0,100)" x2="-5" y2="0" style="fill: none; stroke: #888; stroke-width: 1; opacity: 1;"></line><line transform="translate(0,50)" x2="-5" y2="0" style="fill: none; stroke: #888; stroke-width: 1; opacity: 1;"></line><line transform="translate(0,0)" x2="-5" y2="0" style="fill: none; stroke: #888; stroke-width: 1; opacity: 1;"></line></g><g class="mark-text role-axis-label" style="pointer-events: none;"><text text-anchor="end" transform="translate(-7,303)" style="font: 10px sans-serif; fill: #000; opacity: 1;">0</text><text text-anchor="end" transform="translate(-7,253)" style="font: 10px sans-serif; fill: #000; opacity: 1;">100</text><text text-anchor="end" transform="translate(-7,203)" style="font: 10px sans-serif; fill: #000; opacity: 1;">200</text><text text-anchor="end" transform="translate(-7,153)" style="font: 10px sans-serif; fill: #000; opacity: 1;">300</text><text text-anchor="end" transform="translate(-7,103)" style="font: 10px sans-serif; fill: #000; opacity: 1;">400</text><text text-anchor="end" transform="translate(-7,53)" style="font: 10px sans-serif; fill: #000; opacity: 1;">500</text><text text-anchor="end" transform="translate(-7,3)" style="font: 10px sans-serif; fill: #000; opacity: 1;">600</text></g><g class="mark-rule role-axis-domain" style="pointer-events: none;"><line transform="translate(0,300)" x2="0" y2="-300" style="fill: none; stroke: #888; stroke-width: 1; opacity: 1;"></line></g></g></g></g></g></g></g></g></svg>