<svg class="marks" width="641" height="334" viewBox="0 0 641 334" version="1.1" xmlns="http://www.w3.org/2000/svg" xmlns:xlink="http://www.w3.org/1999/xlink"><g transform="translate(36,11)"><g class="mark-group role-frame root"><g transform="translate(0,0)"><path class="background" d="M0.5,0.5h600v300h-600Z" style="fill: none; stroke: #ddd; stroke-opacity: 0;"></path><g><g class="mark-rect role-mark layer_0_marks"><path d="M528.75,132.7664399092971h67.5v167.2335600907029h-67.5Z" style="fill: black;"></path><path d="M453.75,135.3459176911321h67.5v164.6540823088679h-67.5Z" style="fill: black;"></path><path d="M378.75,137.2004401192977h67.5v162.7995598807023h-67.5Z" style="fill: black;"></path><path d="M303.75,150.51494549382772h67.5v149.48505450617228h-67.5Z" style="fill: black;"></path><path d="M228.75,162.2481571758278h67.5v137.7518428241722h-67.5Z" style="fill: black;"></path><path d="M153.75,186.09468375048533h67.5v113.90531624951467h-67.5Z" style="fill: black;"></path><path d="M78.75,192.61492087415223h67.5v107.38507912584777h-67.5Z" style="fill: black;"></path><path d="M3.75,202.4239141762329h67.5v97.5760858237671h-67.5Z" style="fill: black;"></path></g><g class="mark-text role-mark layer_1_marks"><text text-anchor="middle" transform="translate(562.5,127.7664399092971)" style="font: 13px sans-serif; fill: black;">$446</text><text text-anchor="middle" transform="translate(487.5,130.3459176911321)" style="font: 13px sans-serif; fill: black;">$439</text><text text-anchor="middle" transform="translate(412.5,132.2004401192977)" style="font: 13px sans-serif; fill: black;">$434</text><text text-anchor="middle" transform="translate(337.5,145.51494549382772)" style="font: 13px sans-serif; fill: black;">$399</text><text text-anchor="middle" transform="translate(262.5,157.2481571758278)" style="font: 13px sans-serif; fill: black;">$367</text><text text-anchor="middle" transform="translate(187.5,181.09468375048533)" style="font: 13px sans-serif; fill: black;">$304</text><text text-anchor="middle" transform="translate(112.5,187.61492087415223)" style="font: 13px sans-serif; fill: black;">$286</text><text text-anchor="middle" transform="translate(37.5,197.4239141762329)" style="font: 13px sans-serif; fill: black;">$260</text></g><g class="mark-group role-axis"><g transform="translate(0.5,300.5)"><path class="background" d="M0,0h0v0h0Z" style="pointer-events: none; fill: none;"></path><g><g class="mark-rule role-axis-tick" style="pointer-events: none;"><line transform="translate(37,0)" x2="0" y2="5" style="fill: none; stroke: #888; stroke-width: 1; opacity: 1;"></line><line transform="translate(112,0)" x2="0" y2="5" style="fill: none; stroke: #888; stroke-width: 1; opacity: 1;"></line><line transform="translate(187,0)" x2="0" y2="5" style="fill: none; stroke: #888; stroke-width: 1; opacity: 1;"></line><line transform="translate(262,0)" x2="0" y2="5" style="fill: none; stroke: #888; stroke-width: 1; opacity: 1;"></line><line transform="translate(337,0)" x2="0" y2="5" style="fill: none; stroke: #888; stroke-width: 1; opacity: 1;"></line><line transform="translate(412,0)" x2="0" y2="5" style="fill: none; stroke: #888; stroke-width: 1; opacity: 1;"></line><line transform="translate(487,0)" x2="0" y2="5" style="fill: none; stroke: #888; stroke-width: 1; opacity: 1;"></line><line transform="translate(562,0)" x2="0" y2="5" style="fill: none; stroke: #888; stroke-width: 1; opacity: 1;"></line></g><g class="mark-text role-axis-label" style="pointer-events: none;"><text text-anchor="middle" transform="translate(36.5,15)" style="font: 10px sans-serif; fill: #000; opacity: 1;">2011</text><text text-anchor="middle" transform="translate(111.5,15)" style="font: 10px sans-serif; fill: #000; opacity: 1;">2012</text><text text-anchor="middle" transform="translate(186.5,15)" style="font: 10px sans-serif; fill: #000; opacity: 1;">2013</text><text text-anchor="middle" transform="translate(261.5,15)" style="font: 10px sans-serif; fill: #000; opacity: 1;">2014</text><text text-anchor="middle" transform="translate(336.5,15)" style="font: 10px sans-serif; fill: #000; opacity: 1;">2015</text><text text-anchor="middle" transform="translate(411.5,15)" style="font: 10px sans-serif; fill: #000; opacity: 1;">2016</text><text text-anchor="middle" transform="translate(486.5,15)" style="font: 10px sans-serif; fill: #000; opacity: 1;">2017</text><text text-anchor="middle" transform="translate(561.5,15)" style="font: 10px sans-serif; fill: #000; opacity: 1;">2018</text></g><g class="mark-rule role-axis-domain" style="pointer-events: none;"><line transform="translate(0,0)" x2="600" y2="0" style="fill: none; stroke: #888; stroke-width: 1; opacity: 1;"></line></g></g></g></g><g class="mark-group role-axis"><g transform="translate(0.5,0.5)"><path class="background" d="M0,0h0v0h0Z" style="pointer-events: none; fill: none;"></path><g><g class="mark-rule role-axis-tick" style="pointer-events: none;"><line transform="translate(0,300)" x2="-5" y2="0" style="fill: none; stroke: #888; stroke-width: 1; opacity: 1;"></line><line transform="translate(0,263)" x2="-5" y2="0" style="fill: none; stroke: #888; stroke-width: 1; opacity: 1;"></line><line transform="translate(0,225)" x2="-5" y2="0" style="fill: none; stroke: #888; stroke-width: 1; opacity: 1;"></line><line transform="translate(0,188)" x2="-5" y2="0" style="fill: none; stroke: #888; stroke-width: 1; opacity: 1;"></line><line transform="translate(0,150)" x2="-5" y2="0" style="fill: none; stroke: #888; stroke-width: 1; opacity: 1;"></line><line transform="translate(0,113)" x2="-5" y2="0" style="fill: none; stroke: #888; stroke-width: 1; opacity: 1;"></line><line transform="translate(0,75)" x2="-5" y2="0" style="fill: none; stroke: #888; stroke-width: 1; opacity: 1;"></line><line transform="translate(0,38)" x2="-5" y2="0" style="fill: none; stroke: #888; stroke-width: 1; opacity: 1;"></line><line transform="translate(0,0)" x2="-5" y2="0" style="fill: none; stroke: #888; stroke-width: 1; opacity: 1;"></line></g><g class="mark-text role-axis-label" style="pointer-events: none;"><text text-anchor="end" transform="translate(-7,303)" style="font: 10px sans-serif; fill: #000; opacity: 1;">$0</text><text text-anchor="end" transform="translate(-7,265.5)" style="font: 10px sans-serif; fill: #000; opacity: 1;">$100</text><text text-anchor="end" transform="translate(-7,228)" style="font: 10px sans-serif; fill: #000; opacity: 1;">$200</text><text text-anchor="end" transform="translate(-7,190.5)" style="font: 10px sans-serif; fill: #000; opacity: 1;">$300</text><text text-anchor="end" transform="translate(-7,153)" style="font: 10px sans-serif; fill: #000; opacity: 1;">$400</text><text text-anchor="end" transform="translate(-7,115.5)" style="font: 10px sans-serif; fill: #000; opacity: 1;">$500</text><text text-anchor="end" transform="translate(-7,78)" style="font: 10px sans-serif; fill: #000; opacity: 1;">$600</text><text text-anchor="end" transform="translate(-7,40.5)" style="font: 10px sans-serif; fill: #000; opacity: 1;">$700</text><text text-anchor="end" transform="translate(-7,3)" style="font: 10px sans-serif; fill: #000; opacity: 1;">$800</text></g><g class="mark-rule role-axis-domain" style="pointer-events: none;"><line transform="translate(0,300)" x2="0" y2="-300" style="fill: none; stroke: #888; stroke-width: 1; opacity: 1;"></line></g></g></g></g></g></g></g></g></svg>