<svg class="marks" width="652" height="334" viewBox="0 0 652 334" version="1.1" xmlns="http://www.w3.org/2000/svg" xmlns:xlink="http://www.w3.org/1999/xlink"><g transform="translate(41,11)"><g class="mark-group role-frame root"><g transform="translate(0,0)"><path class="background" d="M0.5,0.5h600v300h-600Z" style="fill: none; stroke: #ddd; stroke-opacity: 0;"></path><g><g class="mark-group role-axis"><g transform="translate(0.5,300.5)"><path class="background" d="M0,0h0v0h0Z" style="pointer-events: none; fill: none;"></path><g><g class="mark-rule role-axis-grid" style="pointer-events: none;"><line transform="translate(0,-300)" x2="0" y2="300" style="fill: none; stroke: #ddd; stroke-width: 1; opacity: 1;"></line><line transform="translate(74,-300)" x2="0" y2="300" style="fill: none; stroke: #ddd; stroke-width: 1; opacity: 1;"></line><line transform="translate(149,-300)" x2="0" y2="300" style="fill: none; stroke: #ddd; stroke-width: 1; opacity: 1;"></line><line transform="translate(223,-300)" x2="0" y2="300" style="fill: none; stroke: #ddd; stroke-width: 1; opacity: 1;"></line><line transform="translate(297,-300)" x2="0" y2="300" style="fill: none; stroke: #ddd; stroke-width: 1; opacity: 1;"></line><line transform="translate(371,-300)" x2="0" y2="300" style="fill: none; stroke: #ddd; stroke-width: 1; opacity: 1;"></line><line transform="translate(445,-300)" x2="0" y2="300" style="fill: none; stroke: #ddd; stroke-width: 1; opacity: 1;"></line><line transform="translate(520,-300)" x2="0" y2="300" style="fill: none; stroke: #ddd; stroke-width: 1; opacity: 1;"></line><line transform="translate(594,-300)" x2="0" y2="300" style="fill: none; stroke: #ddd; stroke-width: 1; opacity: 1;"></line></g></g></g></g><g class="mark-group role-axis"><g transform="translate(0.5,0.5)"><path class="background" d="M0,0h0v0h0Z" style="pointer-events: none; fill: none;"></path><g><g class="mark-rule role-axis-grid" style="pointer-events: none;"><line transform="translate(0,300)" x2="600" y2="0" style="fill: none; stroke: #ddd; stroke-width: 1; opacity: 1;"></line><line transform="translate(0,263)" x2="600" y2="0" style="fill: none; stroke: #ddd; stroke-width: 1; opacity: 1;"></line><line transform="translate(0,225)" x2="600" y2="0" style="fill: none; stroke: #ddd; stroke-width: 1; opacity: 1;"></line><line transform="translate(0,188)" x2="600" y2="0" style="fill: none; stroke: #ddd; stroke-width: 1; opacity: 1;"></line><line transform="translate(0,150)" x2="600" y2="0" style="fill: none; stroke: #ddd; stroke-width: 1; opacity: 1;"></line><line transform="translate(0,113)" x2="600" y2="0" style="fill: none; stroke: #ddd; stroke-width: 1; opacity: 1;"></line><line transform="translate(0,75)" x2="600" y2="0" style="fill: none; stroke: #ddd; stroke-width: 1; opacity: 1;"></line><line transform="translate(0,38)" x2="600" y2="0" style="fill: none; stroke: #ddd; stroke-width: 1; opacity: 1;"></line><line transform="translate(0,0)" x2="600" y2="0" style="fill: none; stroke: #ddd; stroke-width: 1; opacity: 1;"></line></g></g></g></g><g class="mark-line role-mark marks"><path d="M600,68.4375L593.7013206908229,56.25L587.4026413816458,65.625L581.2986793091771,54.375L575,45L568.9045038943447,34.35187500000001L562.6058245851676,26.25L556.3071452759905,46.875L550.2116491703352,28.125L543.9129698611581,42.5625L537.8174737555029,63.75L531.5272604131392,71.25L525.8381307145277,60L519.5394514053505,45L513.2407720961734,67.5L507.1368100237047,67.125L500.8381307145276,28.5L494.7426346088723,63.75L488.4439552996952,68.06250000000003L482.14527599051814,51.84375L476.04977988486286,63.75L469.75110057568577,55.125L463.6556044700305,90.75L457.3653911276668,54.00000000000003L451.6762614290552,82.875L445.37758211987807,60.18750000000003L439.078902810701,65.625L432.9749407382323,56.25L426.6762614290552,78.75L420.5807653234,95.625L414.28208601422284,72.375L407.9834067050457,65.625L401.88791059939047,53.90625L395.5892312902134,75.9375L389.49373518455803,46.875L383.2035218421944,91.875L377.31120894006096,61.875L371.0125296308839,60L364.71385032170673,73.125L358.6098882492381,97.8375L352.31120894006096,49.5L346.21571283440574,84.9375L339.9170335252286,66L333.6183542160515,68.015625L327.5228581103962,78.75L321.2241788012191,73.125L315.12868269556384,66L308.83846935320014,75L303.1493396545886,117.375L296.8506603454114,75L290.55198103623434,90.9375L284.44801896376566,99.95850000000002L278.1493396545886,97.68750000000003L272.0538435489333,89.25L265.7551642397562,79.5L259.45648493057905,88.31250000000003L253.36098882492382,88.125L247.0623095157467,88.125L240.96681341009142,90L234.67660006772775,93.09375L228.98747036911615,94.3125L222.68879105993904,120.9375L216.39011175076192,107.64600000000002L210.28614967829324,130.3125L203.98747036911615,118.125L197.8919742634609,123.9375L191.59329495428378,121.875L185.29461564510666,107.8125L179.1991195394514,100.78125L172.9004402302743,88.31250000000003L166.80494412461903,108.75L160.51473078225536,120L154.82560108364376,142.125L148.52692177446664,136.875L142.22824246528953,147.1875L136.12428039282088,157.89375L129.82560108364376,148.125L123.73010497798847,148.6875L117.43142566881139,154.5L111.13274635963428,168.7875L105.03725025397901,155.025L98.73857094480189,169.6875L92.64307483914664,172.3125L86.35286149678294,163.125L80.46054859464951,183.76875L74.1618692854724,202.33125L67.86318997629529,177.86775L61.75922790382661,225.375L55.46054859464951,189.75L49.365052488994245,174.1875L43.066373179817134,180.01875L36.767693870640024,193.59375L30.672197764984762,179.4375L24.373518455807652,178.125L18.278022350152387,195L11.98780900778869,171.75L6.298679309177109,200.625L0,190.125" style="fill: none; stroke: #4c78a8; stroke-width: 2;"></path></g><g class="mark-group role-axis"><g transform="translate(0.5,300.5)"><path class="background" d="M0,0h0v0h0Z" style="pointer-events: none; fill: none;"></path><g><g class="mark-rule role-axis-tick" style="pointer-events: none;"><line transform="translate(0,0)" x2="0" y2="5" style="fill: none; stroke: #888; stroke-width: 1; opacity: 1;"></line><line transform="translate(74,0)" x2="0" y2="5" style="fill: none; stroke: #888; stroke-width: 1; opacity: 1;"></line><line transform="translate(149,0)" x2="0" y2="5" style="fill: none; stroke: #888; stroke-width: 1; opacity: 1;"></line><line transform="translate(223,0)" x2="0" y2="5" style="fill: none; stroke: #888; stroke-width: 1; opacity: 1;"></line><line transform="translate(297,0)" x2="0" y2="5" style="fill: none; stroke: #888; stroke-width: 1; opacity: 1;"></line><line transform="translate(371,0)" x2="0" y2="5" style="fill: none; stroke: #888; stroke-width: 1; opacity: 1;"></line><line transform="translate(445,0)" x2="0" y2="5" style="fill: none; stroke: #888; stroke-width: 1; opacity: 1;"></line><line transform="translate(520,0)" x2="0" y2="5" style="fill: none; stroke: #888; stroke-width: 1; opacity: 1;"></line><line transform="translate(594,0)" x2="0" y2="5" style="fill: none; stroke: #888; stroke-width: 1; opacity: 1;"></line></g><g class="mark-text role-axis-label" style="pointer-events: none;"><text text-anchor="middle" transform="translate(0,15)" style="font: 10px sans-serif; fill: #000; opacity: 1;">2011</text><text text-anchor="middle" transform="translate(74.1618692854724,15)" style="font: 10px sans-serif; fill: #000; opacity: 1;">2012</text><text text-anchor="middle" transform="translate(148.52692177446664,15)" style="font: 10px sans-serif; fill: #000; opacity: 1;">2013</text><text text-anchor="middle" transform="translate(222.68879105993904,15)" style="font: 10px sans-serif; fill: #000; opacity: 1;">2014</text><text text-anchor="middle" transform="translate(296.8506603454114,15)" style="font: 10px sans-serif; fill: #000; opacity: 1;">2015</text><text text-anchor="middle" transform="translate(371.0125296308839,15)" style="font: 10px sans-serif; fill: #000; opacity: 1;">2016</text><text text-anchor="middle" transform="translate(445.37758211987807,15)" style="font: 10px sans-serif; fill: #000; opacity: 1;">2017</text><text text-anchor="middle" transform="translate(519.5394514053505,15)" style="font: 10px sans-serif; fill: #000; opacity: 1;">2018</text><text text-anchor="middle" transform="translate(593.7013206908229,15)" style="font: 10px sans-serif; fill: #000; opacity: 1;">2019</text></g><g class="mark-rule role-axis-domain" style="pointer-events: none;"><line transform="translate(0,0)" x2="600" y2="0" style="fill: none; stroke: #888; stroke-width: 1; opacity: 1;"></line></g></g></g></g><g class="mark-group role-axis"><g transform="translate(0.5,0.5)"><path class="background" d="M0,0h0v0h0Z" style="pointer-events: none; fill: none;"></path><g><g class="mark-rule role-axis-tick" style="pointer-events: none;"><line transform="translate(0,300)" x2="-5" y2="0" style="fill: none; stroke: #888; stroke-width: 1; opacity: 1;"></line><line transform="translate(0,263)" x2="-5" y2="0" style="fill: none; stroke: #888; stroke-width: 1; opacity: 1;"></line><line transform="translate(0,225)" x2="-5" y2="0" style="fill: none; stroke: #888; stroke-width: 1; opacity: 1;"></line><line transform="translate(0,188)" x2="-5" y2="0" style="fill: none; stroke: #888; stroke-width: 1; opacity: 1;"></line><line transform="translate(0,150)" x2="-5" y2="0" style="fill: none; stroke: #888; stroke-width: 1; opacity: 1;"></line><line transform="translate(0,113)" x2="-5" y2="0" style="fill: none; stroke: #888; stroke-width: 1; opacity: 1;"></line><line transform="translate(0,75)" x2="-5" y2="0" style="fill: none; stroke: #888; stroke-width: 1; opacity: 1;"></line><line transform="translate(0,38)" x2="-5" y2="0" style="fill: none; stroke: #888; stroke-width: 1; opacity: 1;"></line><line transform="translate(0,0)" x2="-5" y2="0" style="fill: none; stroke: #888; stroke-width: 1; opacity: 1;"></line></g><g class="mark-text role-axis-label" style="pointer-events: none;"><text text-anchor="end" transform="translate(-7,303)" style="font: 10px sans-serif; fill: #000; opacity: 1;">$0k</text><text text-anchor="end" transform="translate(-7,265.5)" style="font: 10px sans-serif; fill: #000; opacity: 1;">$100k</text><text text-anchor="end" transform="translate(-7,228)" style="font: 10px sans-serif; fill: #000; opacity: 1;">$200k</text><text text-anchor="end" transform="translate(-7,190.5)" style="font: 10px sans-serif; fill: #000; opacity: 1;">$300k</text><text text-anchor="end" transform="translate(-7,153)" style="font: 10px sans-serif; fill: #000; opacity: 1;">$400k</text><text text-anchor="end" transform="translate(-7,115.5)" style="font: 10px sans-serif; fill: #000; opacity: 1;">$500k</text><text text-anchor="end" transform="translate(-7,78)" style="font: 10px sans-serif; fill: #000; opacity: 1;">$600k</text><text text-anchor="end" transform="translate(-7,40.5)" style="font: 10px sans-serif; fill: #000; opacity: 1;">$700k</text><text text-anchor="end" transform="translate(-7,3)" style="font: 10px sans-serif; fill: #000; opacity: 1;">$800k</text></g><g class="mark-rule role-axis-domain" style="pointer-events: none;"><line transform="translate(0,300)" x2="0" y2="-300" style="fill: none; stroke: #888; stroke-width: 1; opacity: 1;"></line></g></g></g></g></g></g></g></g></svg>