<svg class="marks" width="646" height="334" viewBox="0 0 646 334" version="1.1" xmlns="http://www.w3.org/2000/svg" xmlns:xlink="http://www.w3.org/1999/xlink"><g transform="translate(41,11)"><g class="mark-group role-frame root"><g transform="translate(0,0)"><path class="background" d="M0.5,0.5h600v300h-600Z" style="fill: none; stroke: #ddd; stroke-opacity: 0;"></path><g><g class="mark-rect role-mark layer_0_marks"><path d="M528.75,43.28571428571428h67.5v256.7142857142857h-67.5Z" style="fill: black;"></path><path d="M453.75,58.928571428571416h67.5v241.07142857142858h-67.5Z" style="fill: black;"></path><path d="M378.75,60h67.5v240h-67.5Z" style="fill: black;"></path><path d="M303.75,70.71428571428572h67.5v229.28571428571428h-67.5Z" style="fill: black;"></path><path d="M228.75,93.21428571428572h67.5v206.78571428571428h-67.5Z" style="fill: black;"></path><path d="M153.75,134.64642857142857h67.5v165.35357142857143h-67.5Z" style="fill: black;"></path><path d="M78.75,137.14285714285717h67.5v162.85714285714283h-67.5Z" style="fill: black;"></path><path d="M3.75,166.07142857142856h67.5v133.92857142857144h-67.5Z" style="fill: black;"></path></g><g class="mark-text role-mark layer_1_marks"><text text-anchor="middle" transform="translate(562.5,38.28571428571428)" style="font: 13px sans-serif; fill: black;">$599,000</text><text text-anchor="middle" transform="translate(487.5,53.928571428571416)" style="font: 13px sans-serif; fill: black;">$562,500</text><text text-anchor="middle" transform="translate(412.5,55)" style="font: 13px sans-serif; fill: black;">$560,000</text><text text-anchor="middle" transform="translate(337.5,65.71428571428572)" style="font: 13px sans-serif; fill: black;">$535,000</text><text text-anchor="middle" transform="translate(262.5,88.21428571428572)" style="font: 13px sans-serif; fill: black;">$482,500</text><text text-anchor="middle" transform="translate(187.5,129.64642857142857)" style="font: 13px sans-serif; fill: black;">$385,825</text><text text-anchor="middle" transform="translate(112.5,132.14285714285717)" style="font: 13px sans-serif; fill: black;">$380,000</text><text text-anchor="middle" transform="translate(37.5,161.07142857142856)" style="font: 13px sans-serif; fill: black;">$312,500</text></g><g class="mark-group role-axis"><g transform="translate(0.5,300.5)"><path class="background" d="M0,0h0v0h0Z" style="pointer-events: none; fill: none;"></path><g><g class="mark-rule role-axis-tick" style="pointer-events: none;"><line transform="translate(37,0)" x2="0" y2="5" style="fill: none; stroke: #888; stroke-width: 1; opacity: 1;"></line><line transform="translate(112,0)" x2="0" y2="5" style="fill: none; stroke: #888; stroke-width: 1; opacity: 1;"></line><line transform="translate(187,0)" x2="0" y2="5" style="fill: none; stroke: #888; stroke-width: 1; opacity: 1;"></line><line transform="translate(262,0)" x2="0" y2="5" style="fill: none; stroke: #888; stroke-width: 1; opacity: 1;"></line><line transform="translate(337,0)" x2="0" y2="5" style="fill: none; stroke: #888; stroke-width: 1; opacity: 1;"></line><line transform="translate(412,0)" x2="0" y2="5" style="fill: none; stroke: #888; stroke-width: 1; opacity: 1;"></line><line transform="translate(487,0)" x2="0" y2="5" style="fill: none; stroke: #888; stroke-width: 1; opacity: 1;"></line><line transform="translate(562,0)" x2="0" y2="5" style="fill: none; stroke: #888; stroke-width: 1; opacity: 1;"></line></g><g class="mark-text role-axis-label" style="pointer-events: none;"><text text-anchor="middle" transform="translate(36.5,15)" style="font: 10px sans-serif; fill: #000; opacity: 1;">2011</text><text text-anchor="middle" transform="translate(111.5,15)" style="font: 10px sans-serif; fill: #000; opacity: 1;">2012</text><text text-anchor="middle" transform="translate(186.5,15)" style="font: 10px sans-serif; fill: #000; opacity: 1;">2013</text><text text-anchor="middle" transform="translate(261.5,15)" style="font: 10px sans-serif; fill: #000; opacity: 1;">2014</text><text text-anchor="middle" transform="translate(336.5,15)" style="font: 10px sans-serif; fill: #000; opacity: 1;">2015</text><text text-anchor="middle" transform="translate(411.5,15)" style="font: 10px sans-serif; fill: #000; opacity: 1;">2016</text><text text-anchor="middle" transform="translate(486.5,15)" style="font: 10px sans-serif; fill: #000; opacity: 1;">2017</text><text text-anchor="middle" transform="translate(561.5,15)" style="font: 10px sans-serif; fill: #000; opacity: 1;">2018</text></g><g class="mark-rule role-axis-domain" style="pointer-events: none;"><line transform="translate(0,0)" x2="600" y2="0" style="fill: none; stroke: #888; stroke-width: 1; opacity: 1;"></line></g></g></g></g><g class="mark-group role-axis"><g transform="translate(0.5,0.5)"><path class="background" d="M0,0h0v0h0Z" style="pointer-events: none; fill: none;"></path><g><g class="mark-rule role-axis-tick" style="pointer-events: none;"><line transform="translate(0,300)" x2="-5" y2="0" style="fill: none; stroke: #888; stroke-width: 1; opacity: 1;"></line><line transform="translate(0,257)" x2="-5" y2="0" style="fill: none; stroke: #888; stroke-width: 1; opacity: 1;"></line><line transform="translate(0,214)" x2="-5" y2="0" style="fill: none; stroke: #888; stroke-width: 1; opacity: 1;"></line><line transform="translate(0,171)" x2="-5" y2="0" style="fill: none; stroke: #888; stroke-width: 1; opacity: 1;"></line><line transform="translate(0,129)" x2="-5" y2="0" style="fill: none; stroke: #888; stroke-width: 1; opacity: 1;"></line><line transform="translate(0,86)" x2="-5" y2="0" style="fill: none; stroke: #888; stroke-width: 1; opacity: 1;"></line><line transform="translate(0,43)" x2="-5" y2="0" style="fill: none; stroke: #888; stroke-width: 1; opacity: 1;"></line><line transform="translate(0,0)" x2="-5" y2="0" style="fill: none; stroke: #888; stroke-width: 1; opacity: 1;"></line></g><g class="mark-text role-axis-label" style="pointer-events: none;"><text text-anchor="end" transform="translate(-7,303)" style="font: 10px sans-serif; fill: #000; opacity: 1;">$0k</text><text text-anchor="end" transform="translate(-7,260.14285714285717)" style="font: 10px sans-serif; fill: #000; opacity: 1;">$100k</text><text text-anchor="end" transform="translate(-7,217.28571428571428)" style="font: 10px sans-serif; fill: #000; opacity: 1;">$200k</text><text text-anchor="end" transform="translate(-7,174.42857142857144)" style="font: 10px sans-serif; fill: #000; opacity: 1;">$300k</text><text text-anchor="end" transform="translate(-7,131.57142857142858)" style="font: 10px sans-serif; fill: #000; opacity: 1;">$400k</text><text text-anchor="end" transform="translate(-7,88.71428571428572)" style="font: 10px sans-serif; fill: #000; opacity: 1;">$500k</text><text text-anchor="end" transform="translate(-7,45.85714285714289)" style="font: 10px sans-serif; fill: #000; opacity: 1;">$600k</text><text text-anchor="end" transform="translate(-7,3)" style="font: 10px sans-serif; fill: #000; opacity: 1;">$700k</text></g><g class="mark-rule role-axis-domain" style="pointer-events: none;"><line transform="translate(0,300)" x2="0" y2="-300" style="fill: none; stroke: #888; stroke-width: 1; opacity: 1;"></line></g></g></g></g></g></g></g></g></svg>