<svg class="marks" width="648" height="334" viewBox="0 0 648 334" version="1.1" xmlns="http://www.w3.org/2000/svg" xmlns:xlink="http://www.w3.org/1999/xlink"><g transform="translate(41,11)"><g class="mark-group role-frame root"><g transform="translate(0,0)"><path class="background" d="M0.5,0.5h600v300h-600Z" style="fill: none; stroke: #ddd; stroke-opacity: 0;"></path><g><g class="mark-group role-axis"><g transform="translate(0.5,300.5)"><path class="background" d="M0,0h0v0h0Z" style="pointer-events: none; fill: none;"></path><g><g class="mark-rule role-axis-grid" style="pointer-events: none;"><line transform="translate(0,-300)" x2="0" y2="300" style="fill: none; stroke: #ddd; stroke-width: 1; opacity: 1;"></line><line transform="translate(76,-300)" x2="0" y2="300" style="fill: none; stroke: #ddd; stroke-width: 1; opacity: 1;"></line><line transform="translate(152,-300)" x2="0" y2="300" style="fill: none; stroke: #ddd; stroke-width: 1; opacity: 1;"></line><line transform="translate(227,-300)" x2="0" y2="300" style="fill: none; stroke: #ddd; stroke-width: 1; opacity: 1;"></line><line transform="translate(303,-300)" x2="0" y2="300" style="fill: none; stroke: #ddd; stroke-width: 1; opacity: 1;"></line><line transform="translate(379,-300)" x2="0" y2="300" style="fill: none; stroke: #ddd; stroke-width: 1; opacity: 1;"></line><line transform="translate(455,-300)" x2="0" y2="300" style="fill: none; stroke: #ddd; stroke-width: 1; opacity: 1;"></line><line transform="translate(531,-300)" x2="0" y2="300" style="fill: none; stroke: #ddd; stroke-width: 1; opacity: 1;"></line></g></g></g></g><g class="mark-group role-axis"><g transform="translate(0.5,0.5)"><path class="background" d="M0,0h0v0h0Z" style="pointer-events: none; fill: none;"></path><g><g class="mark-rule role-axis-grid" style="pointer-events: none;"><line transform="translate(0,300)" x2="600" y2="0" style="fill: none; stroke: #ddd; stroke-width: 1; opacity: 1;"></line><line transform="translate(0,263)" x2="600" y2="0" style="fill: none; stroke: #ddd; stroke-width: 1; opacity: 1;"></line><line transform="translate(0,225)" x2="600" y2="0" style="fill: none; stroke: #ddd; stroke-width: 1; opacity: 1;"></line><line transform="translate(0,188)" x2="600" y2="0" style="fill: none; stroke: #ddd; stroke-width: 1; opacity: 1;"></line><line transform="translate(0,150)" x2="600" y2="0" style="fill: none; stroke: #ddd; stroke-width: 1; opacity: 1;"></line><line transform="translate(0,113)" x2="600" y2="0" style="fill: none; stroke: #ddd; stroke-width: 1; opacity: 1;"></line><line transform="translate(0,75)" x2="600" y2="0" style="fill: none; stroke: #ddd; stroke-width: 1; opacity: 1;"></line><line transform="translate(0,38)" x2="600" y2="0" style="fill: none; stroke: #ddd; stroke-width: 1; opacity: 1;"></line><line transform="translate(0,0)" x2="600" y2="0" style="fill: none; stroke: #ddd; stroke-width: 1; opacity: 1;"></line></g></g></g></g><g class="mark-line role-mark marks"><path d="M600,75L593.7651331719128,54.375L587.331373227257,45L581.1051539259771,34.35187500000001L574.6713939813213,26.25L568.2376340366656,46.875L562.0114147353856,28.125L555.5776547907299,42.5625L549.3514354894501,63.75L542.9263230716016,71.25L537.1151850570737,60L530.6814251124179,45L524.247665167762,67.5L518.0127983396749,67.125L511.57903839501904,28.5L505.3528190937392,63.75L498.91905914908335,68.06250000000003L492.4852992044275,51.84375L486.2590799031477,63.75L479.82531995849183,55.125L473.59910065721203,90.75L467.17398823936355,54.00000000000003L461.3628502248357,82.875L454.9290902801798,60.18750000000003L448.49533033552405,65.625L442.2604635074369,56.25L435.82670356278106,78.75L429.6004842615012,95.625L423.1667243168454,72.375L416.7329643721896,65.625L410.5067450709097,53.90625L404.0729851262539,75.9375L397.846765824974,46.875L391.4216534071255,91.875L385.40297474922176,61.875L378.96921480456587,60L372.53545485991003,73.125L366.30058803182294,97.8375L359.86682808716705,49.5L353.64060878588725,84.9375L347.2068488412314,66L340.7730888965756,68.015625L334.54686959529573,78.75L328.1131096506399,73.125L321.88689034936004,66L315.46177793151156,75L309.6506399169837,117.375L303.2168799723279,75L296.78312002767206,90.9375L290.5482531995849,99.95850000000002L284.1144932549291,97.68750000000003L277.8882739536493,89.25L271.45451400899344,79.5L265.0207540643376,88.31250000000003L258.79453476305775,88.125L252.36077481840192,88.125L246.1345555171221,90L239.7094430992736,93.09375L233.89830508474577,94.3125L227.4645451400899,120.9375L221.0307851954341,107.64600000000002L214.79591836734693,130.3125L208.36215842269112,118.125L202.1359391214113,123.9375L195.70217917675544,121.875L189.26841923209963,107.8125L183.04219993081978,100.78125L176.60843998616394,88.31250000000003L170.38222068488415,108.75L163.9571082670356,120L158.14597025250777,142.125L151.71221030785196,136.875L145.27845036319613,147.1875L139.04358353510895,157.89375L132.60982359045312,148.125L126.38360428917329,148.6875L119.94984434451747,154.5L113.51608439986164,168.7875L107.2898650985818,155.025L100.85610515392597,169.6875L94.62988585264615,172.3125L88.20477343479764,163.125L82.18609477689381,183.76875L75.75233483223798,202.33125L69.31857488758214,177.86775L63.08370805949499,225.375L56.649948114839155,189.75L50.42372881355932,174.1875L43.98996886890349,180.01875L37.55620892424767,193.59375L31.32998962296783,179.4375L24.896229678312004,178.125L18.67001037703217,195L12.244897959183673,171.75L6.4337599446558285,200.625L0,190.125" style="fill: none; stroke: #4c78a8; stroke-width: 2;"></path></g><g class="mark-group role-axis"><g transform="translate(0.5,300.5)"><path class="background" d="M0,0h0v0h0Z" style="pointer-events: none; fill: none;"></path><g><g class="mark-rule role-axis-tick" style="pointer-events: none;"><line transform="translate(0,0)" x2="0" y2="5" style="fill: none; stroke: #888; stroke-width: 1; opacity: 1;"></line><line transform="translate(76,0)" x2="0" y2="5" style="fill: none; stroke: #888; stroke-width: 1; opacity: 1;"></line><line transform="translate(152,0)" x2="0" y2="5" style="fill: none; stroke: #888; stroke-width: 1; opacity: 1;"></line><line transform="translate(227,0)" x2="0" y2="5" style="fill: none; stroke: #888; stroke-width: 1; opacity: 1;"></line><line transform="translate(303,0)" x2="0" y2="5" style="fill: none; stroke: #888; stroke-width: 1; opacity: 1;"></line><line transform="translate(379,0)" x2="0" y2="5" style="fill: none; stroke: #888; stroke-width: 1; opacity: 1;"></line><line transform="translate(455,0)" x2="0" y2="5" style="fill: none; stroke: #888; stroke-width: 1; opacity: 1;"></line><line transform="translate(531,0)" x2="0" y2="5" style="fill: none; stroke: #888; stroke-width: 1; opacity: 1;"></line></g><g class="mark-text role-axis-label" style="pointer-events: none;"><text text-anchor="middle" transform="translate(0,15)" style="font: 10px sans-serif; fill: #000; opacity: 1;">2011</text><text text-anchor="middle" transform="translate(75.75233483223798,15)" style="font: 10px sans-serif; fill: #000; opacity: 1;">2012</text><text text-anchor="middle" transform="translate(151.71221030785196,15)" style="font: 10px sans-serif; fill: #000; opacity: 1;">2013</text><text text-anchor="middle" transform="translate(227.4645451400899,15)" style="font: 10px sans-serif; fill: #000; opacity: 1;">2014</text><text text-anchor="middle" transform="translate(303.2168799723279,15)" style="font: 10px sans-serif; fill: #000; opacity: 1;">2015</text><text text-anchor="middle" transform="translate(378.96921480456587,15)" style="font: 10px sans-serif; fill: #000; opacity: 1;">2016</text><text text-anchor="middle" transform="translate(454.9290902801798,15)" style="font: 10px sans-serif; fill: #000; opacity: 1;">2017</text><text text-anchor="middle" transform="translate(530.6814251124179,15)" style="font: 10px sans-serif; fill: #000; opacity: 1;">2018</text></g><g class="mark-rule role-axis-domain" style="pointer-events: none;"><line transform="translate(0,0)" x2="600" y2="0" style="fill: none; stroke: #888; stroke-width: 1; opacity: 1;"></line></g></g></g></g><g class="mark-group role-axis"><g transform="translate(0.5,0.5)"><path class="background" d="M0,0h0v0h0Z" style="pointer-events: none; fill: none;"></path><g><g class="mark-rule role-axis-tick" style="pointer-events: none;"><line transform="translate(0,300)" x2="-5" y2="0" style="fill: none; stroke: #888; stroke-width: 1; opacity: 1;"></line><line transform="translate(0,263)" x2="-5" y2="0" style="fill: none; stroke: #888; stroke-width: 1; opacity: 1;"></line><line transform="translate(0,225)" x2="-5" y2="0" style="fill: none; stroke: #888; stroke-width: 1; opacity: 1;"></line><line transform="translate(0,188)" x2="-5" y2="0" style="fill: none; stroke: #888; stroke-width: 1; opacity: 1;"></line><line transform="translate(0,150)" x2="-5" y2="0" style="fill: none; stroke: #888; stroke-width: 1; opacity: 1;"></line><line transform="translate(0,113)" x2="-5" y2="0" style="fill: none; stroke: #888; stroke-width: 1; opacity: 1;"></line><line transform="translate(0,75)" x2="-5" y2="0" style="fill: none; stroke: #888; stroke-width: 1; opacity: 1;"></line><line transform="translate(0,38)" x2="-5" y2="0" style="fill: none; stroke: #888; stroke-width: 1; opacity: 1;"></line><line transform="translate(0,0)" x2="-5" y2="0" style="fill: none; stroke: #888; stroke-width: 1; opacity: 1;"></line></g><g class="mark-text role-axis-label" style="pointer-events: none;"><text text-anchor="end" transform="translate(-7,303)" style="font: 10px sans-serif; fill: #000; opacity: 1;">$0k</text><text text-anchor="end" transform="translate(-7,265.5)" style="font: 10px sans-serif; fill: #000; opacity: 1;">$100k</text><text text-anchor="end" transform="translate(-7,228)" style="font: 10px sans-serif; fill: #000; opacity: 1;">$200k</text><text text-anchor="end" transform="translate(-7,190.5)" style="font: 10px sans-serif; fill: #000; opacity: 1;">$300k</text><text text-anchor="end" transform="translate(-7,153)" style="font: 10px sans-serif; fill: #000; opacity: 1;">$400k</text><text text-anchor="end" transform="translate(-7,115.5)" style="font: 10px sans-serif; fill: #000; opacity: 1;">$500k</text><text text-anchor="end" transform="translate(-7,78)" style="font: 10px sans-serif; fill: #000; opacity: 1;">$600k</text><text text-anchor="end" transform="translate(-7,40.5)" style="font: 10px sans-serif; fill: #000; opacity: 1;">$700k</text><text text-anchor="end" transform="translate(-7,3)" style="font: 10px sans-serif; fill: #000; opacity: 1;">$800k</text></g><g class="mark-rule role-axis-domain" style="pointer-events: none;"><line transform="translate(0,300)" x2="0" y2="-300" style="fill: none; stroke: #888; stroke-width: 1; opacity: 1;"></line></g></g></g></g></g></g></g></g></svg>