<svg class="marks" width="647" height="334" viewBox="0 0 647 334" version="1.1" xmlns="http://www.w3.org/2000/svg" xmlns:xlink="http://www.w3.org/1999/xlink"><g transform="translate(36,11)"><g class="mark-group role-frame root"><g transform="translate(0,0)"><path class="background" d="M0.5,0.5h600v300h-600Z" style="fill: none; stroke: #ddd; stroke-opacity: 0;"></path><g><g class="mark-group role-axis"><g transform="translate(0.5,0.5)"><path class="background" d="M0,0h0v0h0Z" style="pointer-events: none; fill: none;"></path><g><g class="mark-rule role-axis-grid" style="pointer-events: none;"><line transform="translate(0,300)" x2="600" y2="0" style="fill: none; stroke: #ddd; stroke-width: 1; opacity: 1;"></line><line transform="translate(0,250)" x2="600" y2="0" style="fill: none; stroke: #ddd; stroke-width: 1; opacity: 1;"></line><line transform="translate(0,200)" x2="600" y2="0" style="fill: none; stroke: #ddd; stroke-width: 1; opacity: 1;"></line><line transform="translate(0,150)" x2="600" y2="0" style="fill: none; stroke: #ddd; stroke-width: 1; opacity: 1;"></line><line transform="translate(0,100)" x2="600" y2="0" style="fill: none; stroke: #ddd; stroke-width: 1; opacity: 1;"></line><line transform="translate(0,50)" x2="600" y2="0" style="fill: none; stroke: #ddd; stroke-width: 1; opacity: 1;"></line><line transform="translate(0,0)" x2="600" y2="0" style="fill: none; stroke: #ddd; stroke-width: 1; opacity: 1;"></line></g></g></g></g><g class="mark-symbol role-mark marks"><path transform="translate(600,81.46194423511682)" d="M3.5355339059327378,0A3.5355339059327378,3.5355339059327378,0,1,1,-3.5355339059327378,0A3.5355339059327378,3.5355339059327378,0,1,1,3.5355339059327378,0" style="fill: none; stroke: black; stroke-width: 2; opacity: 0.7;"></path><path transform="translate(594.0247252747253,78.82441597588542)" d="M3.5355339059327378,0A3.5355339059327378,3.5355339059327378,0,1,1,-3.5355339059327378,0A3.5355339059327378,3.5355339059327378,0,1,1,3.5355339059327378,0" style="fill: none; stroke: black; stroke-width: 2; opacity: 0.7;"></path><path transform="translate(591.9642857142858,84.86646884272997)" d="M3.5355339059327378,0A3.5355339059327378,3.5355339059327378,0,1,1,-3.5355339059327378,0A3.5355339059327378,3.5355339059327378,0,1,1,3.5355339059327378,0" style="fill: none; stroke: black; stroke-width: 2; opacity: 0.7;"></path><path transform="translate(561.8818681318681,65.68405139833715)" d="M3.5355339059327378,0A3.5355339059327378,3.5355339059327378,0,1,1,-3.5355339059327378,0A3.5355339059327378,3.5355339059327378,0,1,1,3.5355339059327378,0" style="fill: none; stroke: black; stroke-width: 2; opacity: 0.7;"></path><path transform="translate(557.554945054945,73.24263038548753)" d="M3.5355339059327378,0A3.5355339059327378,3.5355339059327378,0,1,1,-3.5355339059327378,0A3.5355339059327378,3.5355339059327378,0,1,1,3.5355339059327378,0" style="fill: none; stroke: black; stroke-width: 2; opacity: 0.7;"></path><path transform="translate(544.7802197802198,78.18991097922853)" d="M3.5355339059327378,0A3.5355339059327378,3.5355339059327378,0,1,1,-3.5355339059327378,0A3.5355339059327378,3.5355339059327378,0,1,1,3.5355339059327378,0" style="fill: none; stroke: black; stroke-width: 2; opacity: 0.7;"></path><path transform="translate(530.5631868131868,77.02191987906278)" d="M3.5355339059327378,0A3.5355339059327378,3.5355339059327378,0,1,1,-3.5355339059327378,0A3.5355339059327378,3.5355339059327378,0,1,1,3.5355339059327378,0" style="fill: none; stroke: black; stroke-width: 2; opacity: 0.7;"></path><path transform="translate(528.9148351648352,96.22266401590457)" d="M3.5355339059327378,0A3.5355339059327378,3.5355339059327378,0,1,1,-3.5355339059327378,0A3.5355339059327378,3.5355339059327378,0,1,1,3.5355339059327378,0" style="fill: none; stroke: black; stroke-width: 2; opacity: 0.7;"></path><path transform="translate(520.2609890109891,73.85685884691847)" d="M3.5355339059327378,0A3.5355339059327378,3.5355339059327378,0,1,1,-3.5355339059327378,0A3.5355339059327378,3.5355339059327378,0,1,1,3.5355339059327378,0" style="fill: none; stroke: black; stroke-width: 2; opacity: 0.7;"></path><path transform="translate(519.2307692307693,76.34194831013917)" d="M3.5355339059327378,0A3.5355339059327378,3.5355339059327378,0,1,1,-3.5355339059327378,0A3.5355339059327378,3.5355339059327378,0,1,1,3.5355339059327378,0" style="fill: none; stroke: black; stroke-width: 2; opacity: 0.7;"></path><path transform="translate(498.83241758241763,74.75649350649348)" d="M3.5355339059327378,0A3.5355339059327378,3.5355339059327378,0,1,1,-3.5355339059327378,0A3.5355339059327378,3.5355339059327378,0,1,1,3.5355339059327378,0" style="fill: none; stroke: black; stroke-width: 2; opacity: 0.7;"></path><path transform="translate(496.978021978022,64.58504519309781)" d="M3.5355339059327378,0A3.5355339059327378,3.5355339059327378,0,1,1,-3.5355339059327378,0A3.5355339059327378,3.5355339059327378,0,1,1,3.5355339059327378,0" style="fill: none; stroke: black; stroke-width: 2; opacity: 0.7;"></path><path transform="translate(492.44505494505495,106.66666666666663)" d="M3.5355339059327378,0A3.5355339059327378,3.5355339059327378,0,1,1,-3.5355339059327378,0A3.5355339059327378,3.5355339059327378,0,1,1,3.5355339059327378,0" style="fill: none; stroke: black; stroke-width: 2; opacity: 0.7;"></path><path transform="translate(491.0027472527472,67.13709677419357)" d="M3.5355339059327378,0A3.5355339059327378,3.5355339059327378,0,1,1,-3.5355339059327378,0A3.5355339059327378,3.5355339059327378,0,1,1,3.5355339059327378,0" style="fill: none; stroke: black; stroke-width: 2; opacity: 0.7;"></path><path transform="translate(489.9725274725275,112.03931203931208)" d="M3.5355339059327378,0A3.5355339059327378,3.5355339059327378,0,1,1,-3.5355339059327378,0A3.5355339059327378,3.5355339059327378,0,1,1,3.5355339059327378,0" style="fill: none; stroke: black; stroke-width: 2; opacity: 0.7;"></path><path transform="translate(487.29395604395603,65.8175842235004)" d="M3.5355339059327378,0A3.5355339059327378,3.5355339059327378,0,1,1,-3.5355339059327378,0A3.5355339059327378,3.5355339059327378,0,1,1,3.5355339059327378,0" style="fill: none; stroke: black; stroke-width: 2; opacity: 0.7;"></path><path transform="translate(485.2335164835165,104.339762611276)" d="M3.5355339059327378,0A3.5355339059327378,3.5355339059327378,0,1,1,-3.5355339059327378,0A3.5355339059327378,3.5355339059327378,0,1,1,3.5355339059327378,0" style="fill: none; stroke: black; stroke-width: 2; opacity: 0.7;"></path><path transform="translate(475.96153846153845,99.93386243386243)" d="M3.5355339059327378,0A3.5355339059327378,3.5355339059327378,0,1,1,-3.5355339059327378,0A3.5355339059327378,3.5355339059327378,0,1,1,3.5355339059327378,0" style="fill: none; stroke: black; stroke-width: 2; opacity: 0.7;"></path><path transform="translate(466.4835164835165,138.89865260691272)" d="M3.5355339059327378,0A3.5355339059327378,3.5355339059327378,0,1,1,-3.5355339059327378,0A3.5355339059327378,3.5355339059327378,0,1,1,3.5355339059327378,0" style="fill: none; stroke: black; stroke-width: 2; opacity: 0.7;"></path><path transform="translate(449.38186813186815,84.58049886621316)" d="M3.5355339059327378,0A3.5355339059327378,3.5355339059327378,0,1,1,-3.5355339059327378,0A3.5355339059327378,3.5355339059327378,0,1,1,3.5355339059327378,0" style="fill: none; stroke: black; stroke-width: 2; opacity: 0.7;"></path><path transform="translate(439.90384615384613,82.52194732641658)" d="M3.5355339059327378,0A3.5355339059327378,3.5355339059327378,0,1,1,-3.5355339059327378,0A3.5355339059327378,3.5355339059327378,0,1,1,3.5355339059327378,0" style="fill: none; stroke: black; stroke-width: 2; opacity: 0.7;"></path><path transform="translate(439.0796703296703,79.72779369627514)" d="M3.5355339059327378,0A3.5355339059327378,3.5355339059327378,0,1,1,-3.5355339059327378,0A3.5355339059327378,3.5355339059327378,0,1,1,3.5355339059327378,0" style="fill: none; stroke: black; stroke-width: 2; opacity: 0.7;"></path><path transform="translate(432.0741758241758,68.389662027833)" d="M3.5355339059327378,0A3.5355339059327378,3.5355339059327378,0,1,1,-3.5355339059327378,0A3.5355339059327378,3.5355339059327378,0,1,1,3.5355339059327378,0" style="fill: none; stroke: black; stroke-width: 2; opacity: 0.7;"></path><path transform="translate(427.1291208791209,83.3458929917106)" d="M3.5355339059327378,0A3.5355339059327378,3.5355339059327378,0,1,1,-3.5355339059327378,0A3.5355339059327378,3.5355339059327378,0,1,1,3.5355339059327378,0" style="fill: none; stroke: black; stroke-width: 2; opacity: 0.7;"></path><path transform="translate(418.2692307692308,29.1252485089463)" d="M3.5355339059327378,0A3.5355339059327378,3.5355339059327378,0,1,1,-3.5355339059327378,0A3.5355339059327378,3.5355339059327378,0,1,1,3.5355339059327378,0" style="fill: none; stroke: black; stroke-width: 2; opacity: 0.7;"></path><path transform="translate(416.2087912087912,91.83201058201058)" d="M3.5355339059327378,0A3.5355339059327378,3.5355339059327378,0,1,1,-3.5355339059327378,0A3.5355339059327378,3.5355339059327378,0,1,1,3.5355339059327378,0" style="fill: none; stroke: black; stroke-width: 2; opacity: 0.7;"></path><path transform="translate(404.6703296703297,104.48127685696747)" d="M3.5355339059327378,0A3.5355339059327378,3.5355339059327378,0,1,1,-3.5355339059327378,0A3.5355339059327378,3.5355339059327378,0,1,1,3.5355339059327378,0" style="fill: none; stroke: black; stroke-width: 2; opacity: 0.7;"></path><path transform="translate(401.7857142857143,36.58051689860832)" d="M3.5355339059327378,0A3.5355339059327378,3.5355339059327378,0,1,1,-3.5355339059327378,0A3.5355339059327378,3.5355339059327378,0,1,1,3.5355339059327378,0" style="fill: none; stroke: black; stroke-width: 2; opacity: 0.7;"></path><path transform="translate(394.36813186813185,107.12166172106828)" d="M3.5355339059327378,0A3.5355339059327378,3.5355339059327378,0,1,1,-3.5355339059327378,0A3.5355339059327378,3.5355339059327378,0,1,1,3.5355339059327378,0" style="fill: none; stroke: black; stroke-width: 2; opacity: 0.7;"></path><path transform="translate(375.20604395604397,106.54761904761907)" d="M3.5355339059327378,0A3.5355339059327378,3.5355339059327378,0,1,1,-3.5355339059327378,0A3.5355339059327378,3.5355339059327378,0,1,1,3.5355339059327378,0" style="fill: none; stroke: black; stroke-width: 2; opacity: 0.7;"></path><path transform="translate(365.934065934066,95.95728451563699)" d="M3.5355339059327378,0A3.5355339059327378,3.5355339059327378,0,1,1,-3.5355339059327378,0A3.5355339059327378,3.5355339059327378,0,1,1,3.5355339059327378,0" style="fill: none; stroke: black; stroke-width: 2; opacity: 0.7;"></path><path transform="translate(353.9835164835165,91.97622585438336)" d="M3.5355339059327378,0A3.5355339059327378,3.5355339059327378,0,1,1,-3.5355339059327378,0A3.5355339059327378,3.5355339059327378,0,1,1,3.5355339059327378,0" style="fill: none; stroke: black; stroke-width: 2; opacity: 0.7;"></path><path transform="translate(348.83241758241763,97.9607250755287)" d="M3.5355339059327378,0A3.5355339059327378,3.5355339059327378,0,1,1,-3.5355339059327378,0A3.5355339059327378,3.5355339059327378,0,1,1,3.5355339059327378,0" style="fill: none; stroke: black; stroke-width: 2; opacity: 0.7;"></path><path transform="translate(346.771978021978,89.11564625850343)" d="M3.5355339059327378,0A3.5355339059327378,3.5355339059327378,0,1,1,-3.5355339059327378,0A3.5355339059327378,3.5355339059327378,0,1,1,3.5355339059327378,0" style="fill: none; stroke: black; stroke-width: 2; opacity: 0.7;"></path><path transform="translate(345.94780219780216,107.12166172106828)" d="M3.5355339059327378,0A3.5355339059327378,3.5355339059327378,0,1,1,-3.5355339059327378,0A3.5355339059327378,3.5355339059327378,0,1,1,3.5355339059327378,0" style="fill: none; stroke: black; stroke-width: 2; opacity: 0.7;"></path><path transform="translate(345.94780219780216,63.79440665154951)" d="M3.5355339059327378,0A3.5355339059327378,3.5355339059327378,0,1,1,-3.5355339059327378,0A3.5355339059327378,3.5355339059327378,0,1,1,3.5355339059327378,0" style="fill: none; stroke: black; stroke-width: 2; opacity: 0.7;"></path><path transform="translate(319.5741758241758,114.54005934718106)" d="M3.5355339059327378,0A3.5355339059327378,3.5355339059327378,0,1,1,-3.5355339059327378,0A3.5355339059327378,3.5355339059327378,0,1,1,3.5355339059327378,0" style="fill: none; stroke: black; stroke-width: 2; opacity: 0.7;"></path><path transform="translate(315.65934065934067,103.41246290801186)" d="M3.5355339059327378,0A3.5355339059327378,3.5355339059327378,0,1,1,-3.5355339059327378,0A3.5355339059327378,3.5355339059327378,0,1,1,3.5355339059327378,0" style="fill: none; stroke: black; stroke-width: 2; opacity: 0.7;"></path><path transform="translate(315.4532967032967,139.29754804506297)" d="M3.5355339059327378,0A3.5355339059327378,3.5355339059327378,0,1,1,-3.5355339059327378,0A3.5355339059327378,3.5355339059327378,0,1,1,3.5355339059327378,0" style="fill: none; stroke: black; stroke-width: 2; opacity: 0.7;"></path><path transform="translate(308.2417582417582,113.33333333333337)" d="M3.5355339059327378,0A3.5355339059327378,3.5355339059327378,0,1,1,-3.5355339059327378,0A3.5355339059327378,3.5355339059327378,0,1,1,3.5355339059327378,0" style="fill: none; stroke: black; stroke-width: 2; opacity: 0.7;"></path><path transform="translate(297.93956043956047,112.92517006802723)" d="M3.5355339059327378,0A3.5355339059327378,3.5355339059327378,0,1,1,-3.5355339059327378,0A3.5355339059327378,3.5355339059327378,0,1,1,3.5355339059327378,0" style="fill: none; stroke: black; stroke-width: 2; opacity: 0.7;"></path><path transform="translate(296.4972527472528,94.98767460969597)" d="M3.5355339059327378,0A3.5355339059327378,3.5355339059327378,0,1,1,-3.5355339059327378,0A3.5355339059327378,3.5355339059327378,0,1,1,3.5355339059327378,0" style="fill: none; stroke: black; stroke-width: 2; opacity: 0.7;"></path><path transform="translate(288.25549450549454,108.64811133200794)" d="M3.5355339059327378,0A3.5355339059327378,3.5355339059327378,0,1,1,-3.5355339059327378,0A3.5355339059327378,3.5355339059327378,0,1,1,3.5355339059327378,0" style="fill: none; stroke: black; stroke-width: 2; opacity: 0.7;"></path><path transform="translate(278.15934065934067,143.1241655540721)" d="M3.5355339059327378,0A3.5355339059327378,3.5355339059327378,0,1,1,-3.5355339059327378,0A3.5355339059327378,3.5355339059327378,0,1,1,3.5355339059327378,0" style="fill: none; stroke: black; stroke-width: 2; opacity: 0.7;"></path><path transform="translate(276.92307692307696,118.12169312169308)" d="M3.5355339059327378,0A3.5355339059327378,3.5355339059327378,0,1,1,-3.5355339059327378,0A3.5355339059327378,3.5355339059327378,0,1,1,3.5355339059327378,0" style="fill: none; stroke: black; stroke-width: 2; opacity: 0.7;"></path><path transform="translate(252.1978021978022,114.54005934718106)" d="M3.5355339059327378,0A3.5355339059327378,3.5355339059327378,0,1,1,-3.5355339059327378,0A3.5355339059327378,3.5355339059327378,0,1,1,3.5355339059327378,0" style="fill: none; stroke: black; stroke-width: 2; opacity: 0.7;"></path><path transform="translate(231.79945054945057,167.9589131875414)" d="M3.5355339059327378,0A3.5355339059327378,3.5355339059327378,0,1,1,-3.5355339059327378,0A3.5355339059327378,3.5355339059327378,0,1,1,3.5355339059327378,0" style="fill: none; stroke: black; stroke-width: 2; opacity: 0.7;"></path><path transform="translate(226.44230769230768,146.5909090909091)" d="M3.5355339059327378,0A3.5355339059327378,3.5355339059327378,0,1,1,-3.5355339059327378,0A3.5355339059327378,3.5355339059327378,0,1,1,3.5355339059327378,0" style="fill: none; stroke: black; stroke-width: 2; opacity: 0.7;"></path><path transform="translate(214.28571428571428,106.16302186878724)" d="M3.5355339059327378,0A3.5355339059327378,3.5355339059327378,0,1,1,-3.5355339059327378,0A3.5355339059327378,3.5355339059327378,0,1,1,3.5355339059327378,0" style="fill: none; stroke: black; stroke-width: 2; opacity: 0.7;"></path><path transform="translate(205.8379120879121,143.20049301561215)" d="M3.5355339059327378,0A3.5355339059327378,3.5355339059327378,0,1,1,-3.5355339059327378,0A3.5355339059327378,3.5355339059327378,0,1,1,3.5355339059327378,0" style="fill: none; stroke: black; stroke-width: 2; opacity: 0.7;"></path><path transform="translate(200.0686813186813,129.54545454545453)" d="M3.5355339059327378,0A3.5355339059327378,3.5355339059327378,0,1,1,-3.5355339059327378,0A3.5355339059327378,3.5355339059327378,0,1,1,3.5355339059327378,0" style="fill: none; stroke: black; stroke-width: 2; opacity: 0.7;"></path><path transform="translate(168.75,155.43369890329012)" d="M3.5355339059327378,0A3.5355339059327378,3.5355339059327378,0,1,1,-3.5355339059327378,0A3.5355339059327378,3.5355339059327378,0,1,1,3.5355339059327378,0" style="fill: none; stroke: black; stroke-width: 2; opacity: 0.7;"></path><path transform="translate(156.38736263736266,173.39380196523052)" d="M3.5355339059327378,0A3.5355339059327378,3.5355339059327378,0,1,1,-3.5355339059327378,0A3.5355339059327378,3.5355339059327378,0,1,1,3.5355339059327378,0" style="fill: none; stroke: black; stroke-width: 2; opacity: 0.7;"></path><path transform="translate(154.94505494505495,153.051996985682)" d="M3.5355339059327378,0A3.5355339059327378,3.5355339059327378,0,1,1,-3.5355339059327378,0A3.5355339059327378,3.5355339059327378,0,1,1,3.5355339059327378,0" style="fill: none; stroke: black; stroke-width: 2; opacity: 0.7;"></path><path transform="translate(136.60714285714286,156.81989449886964)" d="M3.5355339059327378,0A3.5355339059327378,3.5355339059327378,0,1,1,-3.5355339059327378,0A3.5355339059327378,3.5355339059327378,0,1,1,3.5355339059327378,0" style="fill: none; stroke: black; stroke-width: 2; opacity: 0.7;"></path><path transform="translate(133.72252747252747,190.7309721175584)" d="M3.5355339059327378,0A3.5355339059327378,3.5355339059327378,0,1,1,-3.5355339059327378,0A3.5355339059327378,3.5355339059327378,0,1,1,3.5355339059327378,0" style="fill: none; stroke: black; stroke-width: 2; opacity: 0.7;"></path><path transform="translate(107.76098901098901,150.71806500377932)" d="M3.5355339059327378,0A3.5355339059327378,3.5355339059327378,0,1,1,-3.5355339059327378,0A3.5355339059327378,3.5355339059327378,0,1,1,3.5355339059327378,0" style="fill: none; stroke: black; stroke-width: 2; opacity: 0.7;"></path><path transform="translate(80.76923076923076,156.81989449886964)" d="M3.5355339059327378,0A3.5355339059327378,3.5355339059327378,0,1,1,-3.5355339059327378,0A3.5355339059327378,3.5355339059327378,0,1,1,3.5355339059327378,0" style="fill: none; stroke: black; stroke-width: 2; opacity: 0.7;"></path><path transform="translate(54.80769230769231,149.03782349037823)" d="M3.5355339059327378,0A3.5355339059327378,3.5355339059327378,0,1,1,-3.5355339059327378,0A3.5355339059327378,3.5355339059327378,0,1,1,3.5355339059327378,0" style="fill: none; stroke: black; stroke-width: 2; opacity: 0.7;"></path><path transform="translate(52.74725274725275,209.06084656084653)" d="M3.5355339059327378,0A3.5355339059327378,3.5355339059327378,0,1,1,-3.5355339059327378,0A3.5355339059327378,3.5355339059327378,0,1,1,3.5355339059327378,0" style="fill: none; stroke: black; stroke-width: 2; opacity: 0.7;"></path><path transform="translate(44.0934065934066,157.95454545454547)" d="M3.5355339059327378,0A3.5355339059327378,3.5355339059327378,0,1,1,-3.5355339059327378,0A3.5355339059327378,3.5355339059327378,0,1,1,3.5355339059327378,0" style="fill: none; stroke: black; stroke-width: 2; opacity: 0.7;"></path><path transform="translate(38.11813186813187,165.80516898608352)" d="M3.5355339059327378,0A3.5355339059327378,3.5355339059327378,0,1,1,-3.5355339059327378,0A3.5355339059327378,3.5355339059327378,0,1,1,3.5355339059327378,0" style="fill: none; stroke: black; stroke-width: 2; opacity: 0.7;"></path><path transform="translate(33.79120879120879,175.9920634920635)" d="M3.5355339059327378,0A3.5355339059327378,3.5355339059327378,0,1,1,-3.5355339059327378,0A3.5355339059327378,3.5355339059327378,0,1,1,3.5355339059327378,0" style="fill: none; stroke: black; stroke-width: 2; opacity: 0.7;"></path><path transform="translate(18.75,152.33333333333334)" d="M3.5355339059327378,0A3.5355339059327378,3.5355339059327378,0,1,1,-3.5355339059327378,0A3.5355339059327378,3.5355339059327378,0,1,1,3.5355339059327378,0" style="fill: none; stroke: black; stroke-width: 2; opacity: 0.7;"></path><path transform="translate(18.543956043956044,191.12571898110107)" d="M3.5355339059327378,0A3.5355339059327378,3.5355339059327378,0,1,1,-3.5355339059327378,0A3.5355339059327378,3.5355339059327378,0,1,1,3.5355339059327378,0" style="fill: none; stroke: black; stroke-width: 2; opacity: 0.7;"></path><path transform="translate(0,173.99193548387095)" d="M3.5355339059327378,0A3.5355339059327378,3.5355339059327378,0,1,1,-3.5355339059327378,0A3.5355339059327378,3.5355339059327378,0,1,1,3.5355339059327378,0" style="fill: none; stroke: black; stroke-width: 2; opacity: 0.7;"></path></g><g class="mark-group role-axis"><g transform="translate(0.5,300.5)"><path class="background" d="M0,0h0v0h0Z" style="pointer-events: none; fill: none;"></path><g><g class="mark-rule role-axis-tick" style="pointer-events: none;"><line transform="translate(73,0)" x2="0" y2="5" style="fill: none; stroke: #888; stroke-width: 1; opacity: 1;"></line><line transform="translate(148,0)" x2="0" y2="5" style="fill: none; stroke: #888; stroke-width: 1; opacity: 1;"></line><line transform="translate(223,0)" x2="0" y2="5" style="fill: none; stroke: #888; stroke-width: 1; opacity: 1;"></line><line transform="translate(298,0)" x2="0" y2="5" style="fill: none; stroke: #888; stroke-width: 1; opacity: 1;"></line><line transform="translate(374,0)" x2="0" y2="5" style="fill: none; stroke: #888; stroke-width: 1; opacity: 1;"></line><line transform="translate(449,0)" x2="0" y2="5" style="fill: none; stroke: #888; stroke-width: 1; opacity: 1;"></line><line transform="translate(524,0)" x2="0" y2="5" style="fill: none; stroke: #888; stroke-width: 1; opacity: 1;"></line><line transform="translate(599,0)" x2="0" y2="5" style="fill: none; stroke: #888; stroke-width: 1; opacity: 1;"></line></g><g class="mark-text role-axis-label" style="pointer-events: none;"><text text-anchor="middle" transform="translate(72.59615384615384,15)" style="font: 10px sans-serif; fill: #000; opacity: 1;">2012</text><text text-anchor="middle" transform="translate(148.00824175824175,15)" style="font: 10px sans-serif; fill: #000; opacity: 1;">2013</text><text text-anchor="middle" transform="translate(223.21428571428572,15)" style="font: 10px sans-serif; fill: #000; opacity: 1;">2014</text><text text-anchor="middle" transform="translate(298.4203296703297,15)" style="font: 10px sans-serif; fill: #000; opacity: 1;">2015</text><text text-anchor="middle" transform="translate(373.6263736263736,15)" style="font: 10px sans-serif; fill: #000; opacity: 1;">2016</text><text text-anchor="middle" transform="translate(449.03846153846155,15)" style="font: 10px sans-serif; fill: #000; opacity: 1;">2017</text><text text-anchor="middle" transform="translate(524.2445054945055,15)" style="font: 10px sans-serif; fill: #000; opacity: 1;">2018</text><text text-anchor="end" transform="translate(599.4505494505495,15)" style="font: 10px sans-serif; fill: #000; opacity: 1;">2019</text></g><g class="mark-rule role-axis-domain" style="pointer-events: none;"><line transform="translate(0,0)" x2="600" y2="0" style="fill: none; stroke: #888; stroke-width: 1; opacity: 1;"></line></g></g></g></g><g class="mark-group role-axis"><g transform="translate(0.5,0.5)"><path class="background" d="M0,0h0v0h0Z" style="pointer-events: none; fill: none;"></path><g><g class="mark-rule role-axis-tick" style="pointer-events: none;"><line transform="translate(0,300)" x2="-5" y2="0" style="fill: none; stroke: #888; stroke-width: 1; opacity: 1;"></line><line transform="translate(0,250)" x2="-5" y2="0" style="fill: none; stroke: #888; stroke-width: 1; opacity: 1;"></line><line transform="translate(0,200)" x2="-5" y2="0" style="fill: none; stroke: #888; stroke-width: 1; opacity: 1;"></line><line transform="translate(0,150)" x2="-5" y2="0" style="fill: none; stroke: #888; stroke-width: 1; opacity: 1;"></line><line transform="translate(0,100)" x2="-5" y2="0" style="fill: none; stroke: #888; stroke-width: 1; opacity: 1;"></line><line transform="translate(0,50)" x2="-5" y2="0" style="fill: none; stroke: #888; stroke-width: 1; opacity: 1;"></line><line transform="translate(0,0)" x2="-5" y2="0" style="fill: none; stroke: #888; stroke-width: 1; opacity: 1;"></line></g><g class="mark-text role-axis-label" style="pointer-events: none;"><text text-anchor="end" transform="translate(-7,303)" style="font: 10px sans-serif; fill: #000; opacity: 1;">$0</text><text text-anchor="end" transform="translate(-7,253)" style="font: 10px sans-serif; fill: #000; opacity: 1;">$100</text><text text-anchor="end" transform="translate(-7,203)" style="font: 10px sans-serif; fill: #000; opacity: 1;">$200</text><text text-anchor="end" transform="translate(-7,153)" style="font: 10px sans-serif; fill: #000; opacity: 1;">$300</text><text text-anchor="end" transform="translate(-7,103)" style="font: 10px sans-serif; fill: #000; opacity: 1;">$400</text><text text-anchor="end" transform="translate(-7,53)" style="font: 10px sans-serif; fill: #000; opacity: 1;">$500</text><text text-anchor="end" transform="translate(-7,3)" style="font: 10px sans-serif; fill: #000; opacity: 1;">$600</text></g><g class="mark-rule role-axis-domain" style="pointer-events: none;"><line transform="translate(0,300)" x2="0" y2="-300" style="fill: none; stroke: #888; stroke-width: 1; opacity: 1;"></line></g></g></g></g></g></g></g></g></svg>