<svg class="marks" width="647" height="334" viewBox="0 0 647 334" version="1.1" xmlns="http://www.w3.org/2000/svg" xmlns:xlink="http://www.w3.org/1999/xlink"><g transform="translate(36,11)"><g class="mark-group role-frame root"><g transform="translate(0,0)"><path class="background" d="M0.5,0.5h600v300h-600Z" style="fill: none; stroke: #ddd;"></path><g><g class="mark-symbol role-mark marks"><path transform="translate(600,73.24263038548753)" d="M3.5355339059327378,0A3.5355339059327378,3.5355339059327378,0,1,1,-3.5355339059327378,0A3.5355339059327378,3.5355339059327378,0,1,1,3.5355339059327378,0" style="fill: none; stroke: black; stroke-width: 2; opacity: 0.7;"></path><path transform="translate(586.2527716186253,78.18991097922853)" d="M3.5355339059327378,0A3.5355339059327378,3.5355339059327378,0,1,1,-3.5355339059327378,0A3.5355339059327378,3.5355339059327378,0,1,1,3.5355339059327378,0" style="fill: none; stroke: black; stroke-width: 2; opacity: 0.7;"></path><path transform="translate(570.9534368070953,77.02191987906278)" d="M3.5355339059327378,0A3.5355339059327378,3.5355339059327378,0,1,1,-3.5355339059327378,0A3.5355339059327378,3.5355339059327378,0,1,1,3.5355339059327378,0" style="fill: none; stroke: black; stroke-width: 2; opacity: 0.7;"></path><path transform="translate(569.1796008869179,96.22266401590457)" d="M3.5355339059327378,0A3.5355339059327378,3.5355339059327378,0,1,1,-3.5355339059327378,0A3.5355339059327378,3.5355339059327378,0,1,1,3.5355339059327378,0" style="fill: none; stroke: black; stroke-width: 2; opacity: 0.7;"></path><path transform="translate(559.8669623059867,73.85685884691847)" d="M3.5355339059327378,0A3.5355339059327378,3.5355339059327378,0,1,1,-3.5355339059327378,0A3.5355339059327378,3.5355339059327378,0,1,1,3.5355339059327378,0" style="fill: none; stroke: black; stroke-width: 2; opacity: 0.7;"></path><path transform="translate(558.7583148558758,76.34194831013917)" d="M3.5355339059327378,0A3.5355339059327378,3.5355339059327378,0,1,1,-3.5355339059327378,0A3.5355339059327378,3.5355339059327378,0,1,1,3.5355339059327378,0" style="fill: none; stroke: black; stroke-width: 2; opacity: 0.7;"></path><path transform="translate(536.8070953436807,74.75649350649348)" d="M3.5355339059327378,0A3.5355339059327378,3.5355339059327378,0,1,1,-3.5355339059327378,0A3.5355339059327378,3.5355339059327378,0,1,1,3.5355339059327378,0" style="fill: none; stroke: black; stroke-width: 2; opacity: 0.7;"></path><path transform="translate(534.8115299334812,64.58504519309781)" d="M3.5355339059327378,0A3.5355339059327378,3.5355339059327378,0,1,1,-3.5355339059327378,0A3.5355339059327378,3.5355339059327378,0,1,1,3.5355339059327378,0" style="fill: none; stroke: black; stroke-width: 2; opacity: 0.7;"></path><path transform="translate(529.9334811529933,106.66666666666663)" d="M3.5355339059327378,0A3.5355339059327378,3.5355339059327378,0,1,1,-3.5355339059327378,0A3.5355339059327378,3.5355339059327378,0,1,1,3.5355339059327378,0" style="fill: none; stroke: black; stroke-width: 2; opacity: 0.7;"></path><path transform="translate(528.3813747228381,67.13709677419357)" d="M3.5355339059327378,0A3.5355339059327378,3.5355339059327378,0,1,1,-3.5355339059327378,0A3.5355339059327378,3.5355339059327378,0,1,1,3.5355339059327378,0" style="fill: none; stroke: black; stroke-width: 2; opacity: 0.7;"></path><path transform="translate(527.2727272727273,112.03931203931208)" d="M3.5355339059327378,0A3.5355339059327378,3.5355339059327378,0,1,1,-3.5355339059327378,0A3.5355339059327378,3.5355339059327378,0,1,1,3.5355339059327378,0" style="fill: none; stroke: black; stroke-width: 2; opacity: 0.7;"></path><path transform="translate(524.390243902439,65.8175842235004)" d="M3.5355339059327378,0A3.5355339059327378,3.5355339059327378,0,1,1,-3.5355339059327378,0A3.5355339059327378,3.5355339059327378,0,1,1,3.5355339059327378,0" style="fill: none; stroke: black; stroke-width: 2; opacity: 0.7;"></path><path transform="translate(522.1729490022173,104.339762611276)" d="M3.5355339059327378,0A3.5355339059327378,3.5355339059327378,0,1,1,-3.5355339059327378,0A3.5355339059327378,3.5355339059327378,0,1,1,3.5355339059327378,0" style="fill: none; stroke: black; stroke-width: 2; opacity: 0.7;"></path><path transform="translate(512.1951219512194,99.93386243386243)" d="M3.5355339059327378,0A3.5355339059327378,3.5355339059327378,0,1,1,-3.5355339059327378,0A3.5355339059327378,3.5355339059327378,0,1,1,3.5355339059327378,0" style="fill: none; stroke: black; stroke-width: 2; opacity: 0.7;"></path><path transform="translate(501.99556541019956,138.89865260691272)" d="M3.5355339059327378,0A3.5355339059327378,3.5355339059327378,0,1,1,-3.5355339059327378,0A3.5355339059327378,3.5355339059327378,0,1,1,3.5355339059327378,0" style="fill: none; stroke: black; stroke-width: 2; opacity: 0.7;"></path><path transform="translate(483.59201773835923,84.58049886621316)" d="M3.5355339059327378,0A3.5355339059327378,3.5355339059327378,0,1,1,-3.5355339059327378,0A3.5355339059327378,3.5355339059327378,0,1,1,3.5355339059327378,0" style="fill: none; stroke: black; stroke-width: 2; opacity: 0.7;"></path><path transform="translate(473.39246119733923,82.52194732641658)" d="M3.5355339059327378,0A3.5355339059327378,3.5355339059327378,0,1,1,-3.5355339059327378,0A3.5355339059327378,3.5355339059327378,0,1,1,3.5355339059327378,0" style="fill: none; stroke: black; stroke-width: 2; opacity: 0.7;"></path><path transform="translate(472.50554323725055,79.72779369627514)" d="M3.5355339059327378,0A3.5355339059327378,3.5355339059327378,0,1,1,-3.5355339059327378,0A3.5355339059327378,3.5355339059327378,0,1,1,3.5355339059327378,0" style="fill: none; stroke: black; stroke-width: 2; opacity: 0.7;"></path><path transform="translate(464.96674057649665,68.389662027833)" d="M3.5355339059327378,0A3.5355339059327378,3.5355339059327378,0,1,1,-3.5355339059327378,0A3.5355339059327378,3.5355339059327378,0,1,1,3.5355339059327378,0" style="fill: none; stroke: black; stroke-width: 2; opacity: 0.7;"></path><path transform="translate(459.64523281596456,83.3458929917106)" d="M3.5355339059327378,0A3.5355339059327378,3.5355339059327378,0,1,1,-3.5355339059327378,0A3.5355339059327378,3.5355339059327378,0,1,1,3.5355339059327378,0" style="fill: none; stroke: black; stroke-width: 2; opacity: 0.7;"></path><path transform="translate(450.1108647450111,29.1252485089463)" d="M3.5355339059327378,0A3.5355339059327378,3.5355339059327378,0,1,1,-3.5355339059327378,0A3.5355339059327378,3.5355339059327378,0,1,1,3.5355339059327378,0" style="fill: none; stroke: black; stroke-width: 2; opacity: 0.7;"></path><path transform="translate(447.89356984478934,91.83201058201058)" d="M3.5355339059327378,0A3.5355339059327378,3.5355339059327378,0,1,1,-3.5355339059327378,0A3.5355339059327378,3.5355339059327378,0,1,1,3.5355339059327378,0" style="fill: none; stroke: black; stroke-width: 2; opacity: 0.7;"></path><path transform="translate(435.4767184035477,104.48127685696747)" d="M3.5355339059327378,0A3.5355339059327378,3.5355339059327378,0,1,1,-3.5355339059327378,0A3.5355339059327378,3.5355339059327378,0,1,1,3.5355339059327378,0" style="fill: none; stroke: black; stroke-width: 2; opacity: 0.7;"></path><path transform="translate(432.37250554323725,36.58051689860832)" d="M3.5355339059327378,0A3.5355339059327378,3.5355339059327378,0,1,1,-3.5355339059327378,0A3.5355339059327378,3.5355339059327378,0,1,1,3.5355339059327378,0" style="fill: none; stroke: black; stroke-width: 2; opacity: 0.7;"></path><path transform="translate(424.390243902439,107.12166172106828)" d="M3.5355339059327378,0A3.5355339059327378,3.5355339059327378,0,1,1,-3.5355339059327378,0A3.5355339059327378,3.5355339059327378,0,1,1,3.5355339059327378,0" style="fill: none; stroke: black; stroke-width: 2; opacity: 0.7;"></path><path transform="translate(403.769401330377,106.54761904761907)" d="M3.5355339059327378,0A3.5355339059327378,3.5355339059327378,0,1,1,-3.5355339059327378,0A3.5355339059327378,3.5355339059327378,0,1,1,3.5355339059327378,0" style="fill: none; stroke: black; stroke-width: 2; opacity: 0.7;"></path><path transform="translate(393.7915742793792,95.95728451563699)" d="M3.5355339059327378,0A3.5355339059327378,3.5355339059327378,0,1,1,-3.5355339059327378,0A3.5355339059327378,3.5355339059327378,0,1,1,3.5355339059327378,0" style="fill: none; stroke: black; stroke-width: 2; opacity: 0.7;"></path><path transform="translate(380.93126385809313,91.97622585438336)" d="M3.5355339059327378,0A3.5355339059327378,3.5355339059327378,0,1,1,-3.5355339059327378,0A3.5355339059327378,3.5355339059327378,0,1,1,3.5355339059327378,0" style="fill: none; stroke: black; stroke-width: 2; opacity: 0.7;"></path><path transform="translate(375.3880266075388,97.9607250755287)" d="M3.5355339059327378,0A3.5355339059327378,3.5355339059327378,0,1,1,-3.5355339059327378,0A3.5355339059327378,3.5355339059327378,0,1,1,3.5355339059327378,0" style="fill: none; stroke: black; stroke-width: 2; opacity: 0.7;"></path><path transform="translate(373.1707317073171,89.11564625850343)" d="M3.5355339059327378,0A3.5355339059327378,3.5355339059327378,0,1,1,-3.5355339059327378,0A3.5355339059327378,3.5355339059327378,0,1,1,3.5355339059327378,0" style="fill: none; stroke: black; stroke-width: 2; opacity: 0.7;"></path><path transform="translate(372.2838137472284,63.79440665154951)" d="M3.5355339059327378,0A3.5355339059327378,3.5355339059327378,0,1,1,-3.5355339059327378,0A3.5355339059327378,3.5355339059327378,0,1,1,3.5355339059327378,0" style="fill: none; stroke: black; stroke-width: 2; opacity: 0.7;"></path><path transform="translate(372.2838137472284,107.12166172106828)" d="M3.5355339059327378,0A3.5355339059327378,3.5355339059327378,0,1,1,-3.5355339059327378,0A3.5355339059327378,3.5355339059327378,0,1,1,3.5355339059327378,0" style="fill: none; stroke: black; stroke-width: 2; opacity: 0.7;"></path><path transform="translate(343.9024390243902,114.54005934718106)" d="M3.5355339059327378,0A3.5355339059327378,3.5355339059327378,0,1,1,-3.5355339059327378,0A3.5355339059327378,3.5355339059327378,0,1,1,3.5355339059327378,0" style="fill: none; stroke: black; stroke-width: 2; opacity: 0.7;"></path><path transform="translate(339.68957871396896,103.41246290801186)" d="M3.5355339059327378,0A3.5355339059327378,3.5355339059327378,0,1,1,-3.5355339059327378,0A3.5355339059327378,3.5355339059327378,0,1,1,3.5355339059327378,0" style="fill: none; stroke: black; stroke-width: 2; opacity: 0.7;"></path><path transform="translate(339.4678492239468,139.29754804506297)" d="M3.5355339059327378,0A3.5355339059327378,3.5355339059327378,0,1,1,-3.5355339059327378,0A3.5355339059327378,3.5355339059327378,0,1,1,3.5355339059327378,0" style="fill: none; stroke: black; stroke-width: 2; opacity: 0.7;"></path><path transform="translate(331.7073170731707,113.33333333333337)" d="M3.5355339059327378,0A3.5355339059327378,3.5355339059327378,0,1,1,-3.5355339059327378,0A3.5355339059327378,3.5355339059327378,0,1,1,3.5355339059327378,0" style="fill: none; stroke: black; stroke-width: 2; opacity: 0.7;"></path><path transform="translate(320.6208425720621,112.92517006802723)" d="M3.5355339059327378,0A3.5355339059327378,3.5355339059327378,0,1,1,-3.5355339059327378,0A3.5355339059327378,3.5355339059327378,0,1,1,3.5355339059327378,0" style="fill: none; stroke: black; stroke-width: 2; opacity: 0.7;"></path><path transform="translate(319.06873614190687,94.98767460969597)" d="M3.5355339059327378,0A3.5355339059327378,3.5355339059327378,0,1,1,-3.5355339059327378,0A3.5355339059327378,3.5355339059327378,0,1,1,3.5355339059327378,0" style="fill: none; stroke: black; stroke-width: 2; opacity: 0.7;"></path><path transform="translate(310.19955654101994,108.64811133200794)" d="M3.5355339059327378,0A3.5355339059327378,3.5355339059327378,0,1,1,-3.5355339059327378,0A3.5355339059327378,3.5355339059327378,0,1,1,3.5355339059327378,0" style="fill: none; stroke: black; stroke-width: 2; opacity: 0.7;"></path><path transform="translate(299.33481152993346,143.1241655540721)" d="M3.5355339059327378,0A3.5355339059327378,3.5355339059327378,0,1,1,-3.5355339059327378,0A3.5355339059327378,3.5355339059327378,0,1,1,3.5355339059327378,0" style="fill: none; stroke: black; stroke-width: 2; opacity: 0.7;"></path><path transform="translate(298.00443458980044,118.12169312169308)" d="M3.5355339059327378,0A3.5355339059327378,3.5355339059327378,0,1,1,-3.5355339059327378,0A3.5355339059327378,3.5355339059327378,0,1,1,3.5355339059327378,0" style="fill: none; stroke: black; stroke-width: 2; opacity: 0.7;"></path><path transform="translate(271.39689578713967,114.54005934718106)" d="M3.5355339059327378,0A3.5355339059327378,3.5355339059327378,0,1,1,-3.5355339059327378,0A3.5355339059327378,3.5355339059327378,0,1,1,3.5355339059327378,0" style="fill: none; stroke: black; stroke-width: 2; opacity: 0.7;"></path><path transform="translate(249.4456762749446,167.9589131875414)" d="M3.5355339059327378,0A3.5355339059327378,3.5355339059327378,0,1,1,-3.5355339059327378,0A3.5355339059327378,3.5355339059327378,0,1,1,3.5355339059327378,0" style="fill: none; stroke: black; stroke-width: 2; opacity: 0.7;"></path><path transform="translate(243.68070953436808,146.5909090909091)" d="M3.5355339059327378,0A3.5355339059327378,3.5355339059327378,0,1,1,-3.5355339059327378,0A3.5355339059327378,3.5355339059327378,0,1,1,3.5355339059327378,0" style="fill: none; stroke: black; stroke-width: 2; opacity: 0.7;"></path><path transform="translate(230.59866962305986,106.16302186878724)" d="M3.5355339059327378,0A3.5355339059327378,3.5355339059327378,0,1,1,-3.5355339059327378,0A3.5355339059327378,3.5355339059327378,0,1,1,3.5355339059327378,0" style="fill: none; stroke: black; stroke-width: 2; opacity: 0.7;"></path><path transform="translate(221.5077605321508,143.20049301561215)" d="M3.5355339059327378,0A3.5355339059327378,3.5355339059327378,0,1,1,-3.5355339059327378,0A3.5355339059327378,3.5355339059327378,0,1,1,3.5355339059327378,0" style="fill: none; stroke: black; stroke-width: 2; opacity: 0.7;"></path><path transform="translate(215.29933481152992,129.54545454545453)" d="M3.5355339059327378,0A3.5355339059327378,3.5355339059327378,0,1,1,-3.5355339059327378,0A3.5355339059327378,3.5355339059327378,0,1,1,3.5355339059327378,0" style="fill: none; stroke: black; stroke-width: 2; opacity: 0.7;"></path><path transform="translate(181.59645232815964,155.43369890329012)" d="M3.5355339059327378,0A3.5355339059327378,3.5355339059327378,0,1,1,-3.5355339059327378,0A3.5355339059327378,3.5355339059327378,0,1,1,3.5355339059327378,0" style="fill: none; stroke: black; stroke-width: 2; opacity: 0.7;"></path><path transform="translate(168.2926829268293,173.39380196523052)" d="M3.5355339059327378,0A3.5355339059327378,3.5355339059327378,0,1,1,-3.5355339059327378,0A3.5355339059327378,3.5355339059327378,0,1,1,3.5355339059327378,0" style="fill: none; stroke: black; stroke-width: 2; opacity: 0.7;"></path><path transform="translate(166.74057649667407,153.051996985682)" d="M3.5355339059327378,0A3.5355339059327378,3.5355339059327378,0,1,1,-3.5355339059327378,0A3.5355339059327378,3.5355339059327378,0,1,1,3.5355339059327378,0" style="fill: none; stroke: black; stroke-width: 2; opacity: 0.7;"></path><path transform="translate(147.00665188470066,156.81989449886964)" d="M3.5355339059327378,0A3.5355339059327378,3.5355339059327378,0,1,1,-3.5355339059327378,0A3.5355339059327378,3.5355339059327378,0,1,1,3.5355339059327378,0" style="fill: none; stroke: black; stroke-width: 2; opacity: 0.7;"></path><path transform="translate(143.90243902439025,190.7309721175584)" d="M3.5355339059327378,0A3.5355339059327378,3.5355339059327378,0,1,1,-3.5355339059327378,0A3.5355339059327378,3.5355339059327378,0,1,1,3.5355339059327378,0" style="fill: none; stroke: black; stroke-width: 2; opacity: 0.7;"></path><path transform="translate(115.96452328159644,150.71806500377932)" d="M3.5355339059327378,0A3.5355339059327378,3.5355339059327378,0,1,1,-3.5355339059327378,0A3.5355339059327378,3.5355339059327378,0,1,1,3.5355339059327378,0" style="fill: none; stroke: black; stroke-width: 2; opacity: 0.7;"></path><path transform="translate(86.9179600886918,156.81989449886964)" d="M3.5355339059327378,0A3.5355339059327378,3.5355339059327378,0,1,1,-3.5355339059327378,0A3.5355339059327378,3.5355339059327378,0,1,1,3.5355339059327378,0" style="fill: none; stroke: black; stroke-width: 2; opacity: 0.7;"></path><path transform="translate(58.980044345898,149.03782349037823)" d="M3.5355339059327378,0A3.5355339059327378,3.5355339059327378,0,1,1,-3.5355339059327378,0A3.5355339059327378,3.5355339059327378,0,1,1,3.5355339059327378,0" style="fill: none; stroke: black; stroke-width: 2; opacity: 0.7;"></path><path transform="translate(56.76274944567628,209.06084656084653)" d="M3.5355339059327378,0A3.5355339059327378,3.5355339059327378,0,1,1,-3.5355339059327378,0A3.5355339059327378,3.5355339059327378,0,1,1,3.5355339059327378,0" style="fill: none; stroke: black; stroke-width: 2; opacity: 0.7;"></path><path transform="translate(47.450110864745014,157.95454545454547)" d="M3.5355339059327378,0A3.5355339059327378,3.5355339059327378,0,1,1,-3.5355339059327378,0A3.5355339059327378,3.5355339059327378,0,1,1,3.5355339059327378,0" style="fill: none; stroke: black; stroke-width: 2; opacity: 0.7;"></path><path transform="translate(41.01995565410199,165.80516898608352)" d="M3.5355339059327378,0A3.5355339059327378,3.5355339059327378,0,1,1,-3.5355339059327378,0A3.5355339059327378,3.5355339059327378,0,1,1,3.5355339059327378,0" style="fill: none; stroke: black; stroke-width: 2; opacity: 0.7;"></path><path transform="translate(36.36363636363637,175.9920634920635)" d="M3.5355339059327378,0A3.5355339059327378,3.5355339059327378,0,1,1,-3.5355339059327378,0A3.5355339059327378,3.5355339059327378,0,1,1,3.5355339059327378,0" style="fill: none; stroke: black; stroke-width: 2; opacity: 0.7;"></path><path transform="translate(20.17738359201774,152.33333333333334)" d="M3.5355339059327378,0A3.5355339059327378,3.5355339059327378,0,1,1,-3.5355339059327378,0A3.5355339059327378,3.5355339059327378,0,1,1,3.5355339059327378,0" style="fill: none; stroke: black; stroke-width: 2; opacity: 0.7;"></path><path transform="translate(19.955654101995563,191.12571898110107)" d="M3.5355339059327378,0A3.5355339059327378,3.5355339059327378,0,1,1,-3.5355339059327378,0A3.5355339059327378,3.5355339059327378,0,1,1,3.5355339059327378,0" style="fill: none; stroke: black; stroke-width: 2; opacity: 0.7;"></path><path transform="translate(0,173.99193548387095)" d="M3.5355339059327378,0A3.5355339059327378,3.5355339059327378,0,1,1,-3.5355339059327378,0A3.5355339059327378,3.5355339059327378,0,1,1,3.5355339059327378,0" style="fill: none; stroke: black; stroke-width: 2; opacity: 0.7;"></path></g><g class="mark-group role-axis"><g transform="translate(0.5,300.5)"><path class="background" d="M0,0h0v0h0Z" style="pointer-events: none; fill: none;"></path><g><g class="mark-rule role-axis-tick" style="pointer-events: none;"><line transform="translate(78,0)" x2="0" y2="5" style="fill: none; stroke: #888; stroke-width: 1; opacity: 1;"></line><line transform="translate(159,0)" x2="0" y2="5" style="fill: none; stroke: #888; stroke-width: 1; opacity: 1;"></line><line transform="translate(240,0)" x2="0" y2="5" style="fill: none; stroke: #888; stroke-width: 1; opacity: 1;"></line><line transform="translate(321,0)" x2="0" y2="5" style="fill: none; stroke: #888; stroke-width: 1; opacity: 1;"></line><line transform="translate(402,0)" x2="0" y2="5" style="fill: none; stroke: #888; stroke-width: 1; opacity: 1;"></line><line transform="translate(483,0)" x2="0" y2="5" style="fill: none; stroke: #888; stroke-width: 1; opacity: 1;"></line><line transform="translate(564,0)" x2="0" y2="5" style="fill: none; stroke: #888; stroke-width: 1; opacity: 1;"></line></g><g class="mark-text role-axis-label" style="pointer-events: none;"><text text-anchor="middle" transform="translate(78.12269031781227,15)" style="font: 10px sans-serif; fill: #000; opacity: 1;">2012</text><text text-anchor="middle" transform="translate(159.27568366592757,15)" style="font: 10px sans-serif; fill: #000; opacity: 1;">2013</text><text text-anchor="middle" transform="translate(240.2069475240207,15)" style="font: 10px sans-serif; fill: #000; opacity: 1;">2014</text><text text-anchor="middle" transform="translate(321.1382113821138,15)" style="font: 10px sans-serif; fill: #000; opacity: 1;">2015</text><text text-anchor="middle" transform="translate(402.06947524020694,15)" style="font: 10px sans-serif; fill: #000; opacity: 1;">2016</text><text text-anchor="middle" transform="translate(483.2224685883222,15)" style="font: 10px sans-serif; fill: #000; opacity: 1;">2017</text><text text-anchor="middle" transform="translate(564.1537324464153,15)" style="font: 10px sans-serif; fill: #000; opacity: 1;">2018</text></g><g class="mark-rule role-axis-domain" style="pointer-events: none;"><line transform="translate(0,0)" x2="600" y2="0" style="fill: none; stroke: #888; stroke-width: 1; opacity: 1;"></line></g></g></g></g><g class="mark-group role-axis"><g transform="translate(0.5,0.5)"><path class="background" d="M0,0h0v0h0Z" style="pointer-events: none; fill: none;"></path><g><g class="mark-rule role-axis-tick" style="pointer-events: none;"><line transform="translate(0,300)" x2="-5" y2="0" style="fill: none; stroke: #888; stroke-width: 1; opacity: 1;"></line><line transform="translate(0,250)" x2="-5" y2="0" style="fill: none; stroke: #888; stroke-width: 1; opacity: 1;"></line><line transform="translate(0,200)" x2="-5" y2="0" style="fill: none; stroke: #888; stroke-width: 1; opacity: 1;"></line><line transform="translate(0,150)" x2="-5" y2="0" style="fill: none; stroke: #888; stroke-width: 1; opacity: 1;"></line><line transform="translate(0,100)" x2="-5" y2="0" style="fill: none; stroke: #888; stroke-width: 1; opacity: 1;"></line><line transform="translate(0,50)" x2="-5" y2="0" style="fill: none; stroke: #888; stroke-width: 1; opacity: 1;"></line><line transform="translate(0,0)" x2="-5" y2="0" style="fill: none; stroke: #888; stroke-width: 1; opacity: 1;"></line></g><g class="mark-text role-axis-label" style="pointer-events: none;"><text text-anchor="end" transform="translate(-7,303)" style="font: 10px sans-serif; fill: #000; opacity: 1;">$0</text><text text-anchor="end" transform="translate(-7,253)" style="font: 10px sans-serif; fill: #000; opacity: 1;">$100</text><text text-anchor="end" transform="translate(-7,203)" style="font: 10px sans-serif; fill: #000; opacity: 1;">$200</text><text text-anchor="end" transform="translate(-7,153)" style="font: 10px sans-serif; fill: #000; opacity: 1;">$300</text><text text-anchor="end" transform="translate(-7,103)" style="font: 10px sans-serif; fill: #000; opacity: 1;">$400</text><text text-anchor="end" transform="translate(-7,53)" style="font: 10px sans-serif; fill: #000; opacity: 1;">$500</text><text text-anchor="end" transform="translate(-7,3)" style="font: 10px sans-serif; fill: #000; opacity: 1;">$600</text></g><g class="mark-rule role-axis-domain" style="pointer-events: none;"><line transform="translate(0,300)" x2="0" y2="-300" style="fill: none; stroke: #888; stroke-width: 1; opacity: 1;"></line></g></g></g></g></g></g></g></g></svg>