<svg class="marks" width="641" height="334" viewBox="0 0 641 334" version="1.1" xmlns="http://www.w3.org/2000/svg" xmlns:xlink="http://www.w3.org/1999/xlink"><g transform="translate(36,11)"><g class="mark-group role-frame root"><g transform="translate(0,0)"><path class="background" d="M0.5,0.5h600v300h-600Z" style="fill: none; stroke: #ddd;"></path><g><g class="mark-rect role-mark layer_0_marks"><path d="M528.75,33.12709851497476h67.5v266.87290148502524h-67.5Z" style="fill: black;"></path><path d="M453.75,36.55346830581141h67.5v263.4465316941886h-67.5Z" style="fill: black;"></path><path d="M378.75,39.5207041908763h67.5v260.4792958091237h-67.5Z" style="fill: black;"></path><path d="M303.75,60.823912790124325h67.5v239.17608720987567h-67.5Z" style="fill: black;"></path><path d="M228.75,79.59705148132448h67.5v220.40294851867552h-67.5Z" style="fill: black;"></path><path d="M153.75,117.75149400077652h67.5v182.24850599922348h-67.5Z" style="fill: black;"></path><path d="M78.75,128.18387339864356h67.5v171.81612660135644h-67.5Z" style="fill: black;"></path><path d="M3.75,143.87826268197267h67.5v156.12173731802733h-67.5Z" style="fill: black;"></path></g><g class="mark-text role-mark layer_1_marks"><text text-anchor="middle" transform="translate(562.5,28.12709851497476)" style="font: 13px sans-serif; fill: black;">$445</text><text text-anchor="middle" transform="translate(487.5,31.553468305811407)" style="font: 13px sans-serif; fill: black;">$439</text><text text-anchor="middle" transform="translate(412.5,34.5207041908763)" style="font: 13px sans-serif; fill: black;">$434</text><text text-anchor="middle" transform="translate(337.5,55.823912790124325)" style="font: 13px sans-serif; fill: black;">$399</text><text text-anchor="middle" transform="translate(262.5,74.59705148132448)" style="font: 13px sans-serif; fill: black;">$367</text><text text-anchor="middle" transform="translate(187.5,112.75149400077652)" style="font: 13px sans-serif; fill: black;">$304</text><text text-anchor="middle" transform="translate(112.5,123.18387339864356)" style="font: 13px sans-serif; fill: black;">$286</text><text text-anchor="middle" transform="translate(37.5,138.87826268197267)" style="font: 13px sans-serif; fill: black;">$260</text></g><g class="mark-group role-axis"><g transform="translate(0.5,300.5)"><path class="background" d="M0,0h0v0h0Z" style="pointer-events: none; fill: none;"></path><g><g class="mark-rule role-axis-tick" style="pointer-events: none;"><line transform="translate(37,0)" x2="0" y2="5" style="fill: none; stroke: #888; stroke-width: 1; opacity: 1;"></line><line transform="translate(112,0)" x2="0" y2="5" style="fill: none; stroke: #888; stroke-width: 1; opacity: 1;"></line><line transform="translate(187,0)" x2="0" y2="5" style="fill: none; stroke: #888; stroke-width: 1; opacity: 1;"></line><line transform="translate(262,0)" x2="0" y2="5" style="fill: none; stroke: #888; stroke-width: 1; opacity: 1;"></line><line transform="translate(337,0)" x2="0" y2="5" style="fill: none; stroke: #888; stroke-width: 1; opacity: 1;"></line><line transform="translate(412,0)" x2="0" y2="5" style="fill: none; stroke: #888; stroke-width: 1; opacity: 1;"></line><line transform="translate(487,0)" x2="0" y2="5" style="fill: none; stroke: #888; stroke-width: 1; opacity: 1;"></line><line transform="translate(562,0)" x2="0" y2="5" style="fill: none; stroke: #888; stroke-width: 1; opacity: 1;"></line></g><g class="mark-text role-axis-label" style="pointer-events: none;"><text text-anchor="middle" transform="translate(36.5,15)" style="font: 10px sans-serif; fill: #000; opacity: 1;">2011</text><text text-anchor="middle" transform="translate(111.5,15)" style="font: 10px sans-serif; fill: #000; opacity: 1;">2012</text><text text-anchor="middle" transform="translate(186.5,15)" style="font: 10px sans-serif; fill: #000; opacity: 1;">2013</text><text text-anchor="middle" transform="translate(261.5,15)" style="font: 10px sans-serif; fill: #000; opacity: 1;">2014</text><text text-anchor="middle" transform="translate(336.5,15)" style="font: 10px sans-serif; fill: #000; opacity: 1;">2015</text><text text-anchor="middle" transform="translate(411.5,15)" style="font: 10px sans-serif; fill: #000; opacity: 1;">2016</text><text text-anchor="middle" transform="translate(486.5,15)" style="font: 10px sans-serif; fill: #000; opacity: 1;">2017</text><text text-anchor="middle" transform="translate(561.5,15)" style="font: 10px sans-serif; fill: #000; opacity: 1;">2018</text></g><g class="mark-rule role-axis-domain" style="pointer-events: none;"><line transform="translate(0,0)" x2="600" y2="0" style="fill: none; stroke: #888; stroke-width: 1; opacity: 1;"></line></g></g></g></g><g class="mark-group role-axis"><g transform="translate(0.5,0.5)"><path class="background" d="M0,0h0v0h0Z" style="pointer-events: none; fill: none;"></path><g><g class="mark-rule role-axis-tick" style="pointer-events: none;"><line transform="translate(0,300)" x2="-5" y2="0" style="fill: none; stroke: #888; stroke-width: 1; opacity: 1;"></line><line transform="translate(0,270)" x2="-5" y2="0" style="fill: none; stroke: #888; stroke-width: 1; opacity: 1;"></line><line transform="translate(0,240)" x2="-5" y2="0" style="fill: none; stroke: #888; stroke-width: 1; opacity: 1;"></line><line transform="translate(0,210)" x2="-5" y2="0" style="fill: none; stroke: #888; stroke-width: 1; opacity: 1;"></line><line transform="translate(0,180)" x2="-5" y2="0" style="fill: none; stroke: #888; stroke-width: 1; opacity: 1;"></line><line transform="translate(0,150)" x2="-5" y2="0" style="fill: none; stroke: #888; stroke-width: 1; opacity: 1;"></line><line transform="translate(0,120)" x2="-5" y2="0" style="fill: none; stroke: #888; stroke-width: 1; opacity: 1;"></line><line transform="translate(0,90)" x2="-5" y2="0" style="fill: none; stroke: #888; stroke-width: 1; opacity: 1;"></line><line transform="translate(0,60)" x2="-5" y2="0" style="fill: none; stroke: #888; stroke-width: 1; opacity: 1;"></line><line transform="translate(0,30)" x2="-5" y2="0" style="fill: none; stroke: #888; stroke-width: 1; opacity: 1;"></line><line transform="translate(0,0)" x2="-5" y2="0" style="fill: none; stroke: #888; stroke-width: 1; opacity: 1;"></line></g><g class="mark-text role-axis-label" style="pointer-events: none;"><text text-anchor="end" transform="translate(-7,303)" style="font: 10px sans-serif; fill: #000; opacity: 1;">$0</text><text text-anchor="end" transform="translate(-7,273)" style="font: 10px sans-serif; fill: #000; opacity: 1;">$50</text><text text-anchor="end" transform="translate(-7,243)" style="font: 10px sans-serif; fill: #000; opacity: 1;">$100</text><text text-anchor="end" transform="translate(-7,213)" style="font: 10px sans-serif; fill: #000; opacity: 1;">$150</text><text text-anchor="end" transform="translate(-7,183)" style="font: 10px sans-serif; fill: #000; opacity: 1;">$200</text><text text-anchor="end" transform="translate(-7,153)" style="font: 10px sans-serif; fill: #000; opacity: 1;">$250</text><text text-anchor="end" transform="translate(-7,123)" style="font: 10px sans-serif; fill: #000; opacity: 1;">$300</text><text text-anchor="end" transform="translate(-7,93)" style="font: 10px sans-serif; fill: #000; opacity: 1;">$350</text><text text-anchor="end" transform="translate(-7,63)" style="font: 10px sans-serif; fill: #000; opacity: 1;">$400</text><text text-anchor="end" transform="translate(-7,33)" style="font: 10px sans-serif; fill: #000; opacity: 1;">$450</text><text text-anchor="end" transform="translate(-7,3)" style="font: 10px sans-serif; fill: #000; opacity: 1;">$500</text></g><g class="mark-rule role-axis-domain" style="pointer-events: none;"><line transform="translate(0,300)" x2="0" y2="-300" style="fill: none; stroke: #888; stroke-width: 1; opacity: 1;"></line></g></g></g></g></g></g></g></g></svg>