<svg class="marks" width="640" height="334" viewBox="0 0 640 334" version="1.1" xmlns="http://www.w3.org/2000/svg" xmlns:xlink="http://www.w3.org/1999/xlink"><g transform="translate(35,11)"><g class="mark-group role-frame root"><g transform="translate(0,0)"><path class="background" d="M0.5,0.5h600v300h-600Z" style="fill: none; stroke: #ddd;"></path><g><g class="mark-rect role-mark layer_0_marks"><path d="M528.75,214.28571428571428h67.5v85.71428571428572h-67.5Z" style="fill: black;"></path><path d="M453.75,42.85714285714289h67.5v257.1428571428571h-67.5Z" style="fill: black;"></path><path d="M378.75,85.71428571428572h67.5v214.28571428571428h-67.5Z" style="fill: black;"></path><path d="M303.75,85.71428571428572h67.5v214.28571428571428h-67.5Z" style="fill: black;"></path><path d="M228.75,128.57142857142858h67.5v171.42857142857142h-67.5Z" style="fill: black;"></path><path d="M153.75,171.42857142857144h67.5v128.57142857142856h-67.5Z" style="fill: black;"></path><path d="M78.75,214.28571428571428h67.5v85.71428571428572h-67.5Z" style="fill: black;"></path><path d="M3.75,128.57142857142858h67.5v171.42857142857142h-67.5Z" style="fill: black;"></path></g><g class="mark-text role-mark layer_1_marks"><text text-anchor="middle" transform="translate(562.5,208.28571428571428)" style="font: 20px sans-serif; fill: black;">4</text><text text-anchor="middle" transform="translate(487.5,36.85714285714289)" style="font: 20px sans-serif; fill: black;">12</text><text text-anchor="middle" transform="translate(412.5,79.71428571428572)" style="font: 20px sans-serif; fill: black;">10</text><text text-anchor="middle" transform="translate(337.5,79.71428571428572)" style="font: 20px sans-serif; fill: black;">10</text><text text-anchor="middle" transform="translate(262.5,122.57142857142858)" style="font: 20px sans-serif; fill: black;">8</text><text text-anchor="middle" transform="translate(187.5,165.42857142857144)" style="font: 20px sans-serif; fill: black;">6</text><text text-anchor="middle" transform="translate(112.5,208.28571428571428)" style="font: 20px sans-serif; fill: black;">4</text><text text-anchor="middle" transform="translate(37.5,122.57142857142858)" style="font: 20px sans-serif; fill: black;">8</text></g><g class="mark-group role-axis"><g transform="translate(0.5,300.5)"><path class="background" d="M0,0h0v0h0Z" style="pointer-events: none; fill: none;"></path><g><g class="mark-rule role-axis-tick" style="pointer-events: none;"><line transform="translate(37,0)" x2="0" y2="5" style="fill: none; stroke: #888; stroke-width: 1; opacity: 1;"></line><line transform="translate(112,0)" x2="0" y2="5" style="fill: none; stroke: #888; stroke-width: 1; opacity: 1;"></line><line transform="translate(187,0)" x2="0" y2="5" style="fill: none; stroke: #888; stroke-width: 1; opacity: 1;"></line><line transform="translate(262,0)" x2="0" y2="5" style="fill: none; stroke: #888; stroke-width: 1; opacity: 1;"></line><line transform="translate(337,0)" x2="0" y2="5" style="fill: none; stroke: #888; stroke-width: 1; opacity: 1;"></line><line transform="translate(412,0)" x2="0" y2="5" style="fill: none; stroke: #888; stroke-width: 1; opacity: 1;"></line><line transform="translate(487,0)" x2="0" y2="5" style="fill: none; stroke: #888; stroke-width: 1; opacity: 1;"></line><line transform="translate(562,0)" x2="0" y2="5" style="fill: none; stroke: #888; stroke-width: 1; opacity: 1;"></line></g><g class="mark-text role-axis-label" style="pointer-events: none;"><text text-anchor="middle" transform="translate(36.5,15)" style="font: 10px sans-serif; fill: #000; opacity: 1;">2011</text><text text-anchor="middle" transform="translate(111.5,15)" style="font: 10px sans-serif; fill: #000; opacity: 1;">2012</text><text text-anchor="middle" transform="translate(186.5,15)" style="font: 10px sans-serif; fill: #000; opacity: 1;">2013</text><text text-anchor="middle" transform="translate(261.5,15)" style="font: 10px sans-serif; fill: #000; opacity: 1;">2014</text><text text-anchor="middle" transform="translate(336.5,15)" style="font: 10px sans-serif; fill: #000; opacity: 1;">2015</text><text text-anchor="middle" transform="translate(411.5,15)" style="font: 10px sans-serif; fill: #000; opacity: 1;">2016</text><text text-anchor="middle" transform="translate(486.5,15)" style="font: 10px sans-serif; fill: #000; opacity: 1;">2017</text><text text-anchor="middle" transform="translate(561.5,15)" style="font: 10px sans-serif; fill: #000; opacity: 1;">2018</text></g><g class="mark-rule role-axis-domain" style="pointer-events: none;"><line transform="translate(0,0)" x2="600" y2="0" style="fill: none; stroke: #888; stroke-width: 1; opacity: 1;"></line></g></g></g></g><g class="mark-group role-axis"><g transform="translate(0.5,0.5)"><path class="background" d="M0,0h0v0h0Z" style="pointer-events: none; fill: none;"></path><g><g class="mark-rule role-axis-tick" style="pointer-events: none;"><line transform="translate(0,300)" x2="-5" y2="0" style="fill: none; stroke: #888; stroke-width: 1; opacity: 1;"></line><line transform="translate(0,257)" x2="-5" y2="0" style="fill: none; stroke: #888; stroke-width: 1; opacity: 1;"></line><line transform="translate(0,214)" x2="-5" y2="0" style="fill: none; stroke: #888; stroke-width: 1; opacity: 1;"></line><line transform="translate(0,171)" x2="-5" y2="0" style="fill: none; stroke: #888; stroke-width: 1; opacity: 1;"></line><line transform="translate(0,129)" x2="-5" y2="0" style="fill: none; stroke: #888; stroke-width: 1; opacity: 1;"></line><line transform="translate(0,86)" x2="-5" y2="0" style="fill: none; stroke: #888; stroke-width: 1; opacity: 1;"></line><line transform="translate(0,43)" x2="-5" y2="0" style="fill: none; stroke: #888; stroke-width: 1; opacity: 1;"></line><line transform="translate(0,0)" x2="-5" y2="0" style="fill: none; stroke: #888; stroke-width: 1; opacity: 1;"></line></g><g class="mark-text role-axis-label" style="pointer-events: none;"><text text-anchor="end" transform="translate(-7,303)" style="font: 10px sans-serif; fill: #000; opacity: 1;">0</text><text text-anchor="end" transform="translate(-7,260.14285714285717)" style="font: 10px sans-serif; fill: #000; opacity: 1;">2</text><text text-anchor="end" transform="translate(-7,217.28571428571428)" style="font: 10px sans-serif; fill: #000; opacity: 1;">4</text><text text-anchor="end" transform="translate(-7,174.42857142857144)" style="font: 10px sans-serif; fill: #000; opacity: 1;">6</text><text text-anchor="end" transform="translate(-7,131.57142857142858)" style="font: 10px sans-serif; fill: #000; opacity: 1;">8</text><text text-anchor="end" transform="translate(-7,88.71428571428572)" style="font: 10px sans-serif; fill: #000; opacity: 1;">10</text><text text-anchor="end" transform="translate(-7,45.85714285714289)" style="font: 10px sans-serif; fill: #000; opacity: 1;">12</text><text text-anchor="end" transform="translate(-7,3)" style="font: 10px sans-serif; fill: #000; opacity: 1;">14</text></g><g class="mark-rule role-axis-domain" style="pointer-events: none;"><line transform="translate(0,300)" x2="0" y2="-300" style="fill: none; stroke: #888; stroke-width: 1; opacity: 1;"></line></g></g></g></g></g></g></g></g></svg>