<svg class="marks" width="530" height="994" viewBox="0 0 530 994" version="1.1" xmlns="http://www.w3.org/2000/svg" xmlns:xlink="http://www.w3.org/1999/xlink"><g transform="translate(124,5)"><g class="mark-group role-frame root"><g transform="translate(0,0)"><path class="background" d="M0.5,0.5h400v966h-400Z" style="fill: none; stroke: #ddd; stroke-opacity: 0;"></path><g><g class="mark-group role-axis"><g transform="translate(0.5,966.5)"><path class="background" d="M0,0h0v0h0Z" style="pointer-events: none; fill: none;"></path><g><g class="mark-rule role-axis-grid" style="pointer-events: none;"><line transform="translate(0,0)" x2="0" y2="-966" style="fill: none; stroke: #ddd; stroke-width: 1; opacity: 1;"></line><line transform="translate(40,0)" x2="0" y2="-966" style="fill: none; stroke: #ddd; stroke-width: 1; opacity: 1;"></line><line transform="translate(80,0)" x2="0" y2="-966" style="fill: none; stroke: #ddd; stroke-width: 1; opacity: 1;"></line><line transform="translate(120,0)" x2="0" y2="-966" style="fill: none; stroke: #ddd; stroke-width: 1; opacity: 1;"></line><line transform="translate(160,0)" x2="0" y2="-966" style="fill: none; stroke: #ddd; stroke-width: 1; opacity: 1;"></line><line transform="translate(200,0)" x2="0" y2="-966" style="fill: none; stroke: #ddd; stroke-width: 1; opacity: 1;"></line><line transform="translate(240,0)" x2="0" y2="-966" style="fill: none; stroke: #ddd; stroke-width: 1; opacity: 1;"></line><line transform="translate(280,0)" x2="0" y2="-966" style="fill: none; stroke: #ddd; stroke-width: 1; opacity: 1;"></line><line transform="translate(320,0)" x2="0" y2="-966" style="fill: none; stroke: #ddd; stroke-width: 1; opacity: 1;"></line><line transform="translate(360,0)" x2="0" y2="-966" style="fill: none; stroke: #ddd; stroke-width: 1; opacity: 1;"></line><line transform="translate(400,0)" x2="0" y2="-966" style="fill: none; stroke: #ddd; stroke-width: 1; opacity: 1;"></line></g></g></g></g><g class="mark-rect role-mark marks"><path d="M0,778.05h164v18.900000000000002h-164Z" style="fill: gray;"></path><path d="M0,631.05h186v18.900000000000002h-186Z" style="fill: gray;"></path><path d="M0,148.05h266.40000000000003v18.900000000000002h-266.40000000000003Z" style="fill: gray;"></path><path d="M0,211.05h257.3v18.900000000000002h-257.3Z" style="fill: gray;"></path><path d="M0,442.05h207.6v18.900000000000002h-207.6Z" style="fill: gray;"></path><path d="M0,904.05h148v18.900000000000002h-148Z" style="fill: gray;"></path><path d="M0,358.05h222.00000000000003v18.900000000000002h-222.00000000000003Z" style="fill: gray;"></path><path d="M0,337.05h222.40000000000003v18.900000000000002h-222.40000000000003Z" style="fill: gray;"></path><path d="M0,862.05h152.4v18.900000000000002h-152.4Z" style="fill: gray;"></path><path d="M0,484.05h200.8v18.900000000000002h-200.8Z" style="fill: gray;"></path><path d="M0,589.05h190v18.900000000000002h-190Z" style="fill: gray;"></path><path d="M0,253.05h240v18.900000000000002h-240Z" style="fill: gray;"></path><path d="M0,463.05h204v18.900000000000002h-204Z" style="fill: gray;"></path><path d="M0,379.05h218.00000000000003v18.900000000000002h-218.00000000000003Z" style="fill: gray;"></path><path d="M0,295.05h231.99999999999997v18.900000000000002h-231.99999999999997Z" style="fill: gray;"></path><path d="M0,127.05000000000001h287.59999999999997v18.900000000000002h-287.59999999999997Z" style="fill: gray;"></path><path d="M0,316.05h228.79999999999998v18.900000000000002h-228.79999999999998Z" style="fill: gray;"></path><path d="M0,85.05000000000001h295.1v18.900000000000002h-295.1Z" style="fill: gray;"></path><path d="M0,715.05h164.1v18.900000000000002h-164.1Z" style="fill: gray;"></path><path d="M0,925.05h136v18.900000000000002h-136Z" style="fill: gray;"></path><path d="M0,799.05h158v18.900000000000002h-158Z" style="fill: gray;"></path><path d="M0,547.05h198v18.900000000000002h-198Z" style="fill: gray;"></path><path d="M0,757.05h164v18.900000000000002h-164Z" style="fill: gray;"></path><path d="M0,610.05h188v18.900000000000002h-188Z" style="fill: gray;"></path><path d="M0,820.05h157.4v18.900000000000002h-157.4Z" style="fill: gray;"></path><path d="M0,64.05000000000001h333v18.900000000000002h-333Z" style="fill: gray;"></path><path d="M0,232.05h248v18.900000000000002h-248Z" style="fill: gray;"></path><path d="M0,505.05h200v18.900000000000002h-200Z" style="fill: gray;"></path><path d="M0,421.05h212.2v18.900000000000002h-212.2Z" style="fill: gray;"></path><path d="M0,169.05h265.4v18.900000000000002h-265.4Z" style="fill: black;"></path><path d="M0,1.0500000000000114h370v18.900000000000002h-370Z" style="fill: gray;"></path><path d="M0,883.05h148v18.900000000000002h-148Z" style="fill: gray;"></path><path d="M0,673.05h176v18.900000000000002h-176Z" style="fill: gray;"></path><path d="M0,652.05h180.7v18.900000000000002h-180.7Z" style="fill: gray;"></path><path d="M0,841.05h154v18.900000000000002h-154Z" style="fill: gray;"></path><path d="M0,190.05h264v18.900000000000002h-264Z" style="fill: gray;"></path><path d="M0,274.05h238.60000000000002v18.900000000000002h-238.60000000000002Z" style="fill: gray;"></path><path d="M0,400.05h216.8v18.900000000000002h-216.8Z" style="fill: gray;"></path><path d="M0,568.05h194v18.900000000000002h-194Z" style="fill: gray;"></path><path d="M0,946.05h134v18.900000000000002h-134Z" style="fill: gray;"></path><path d="M0,736.05h164v18.900000000000002h-164Z" style="fill: gray;"></path><path d="M0,694.05h170.3v18.900000000000002h-170.3Z" style="fill: gray;"></path><path d="M0,22.05000000000001h360.9v18.900000000000002h-360.9Z" style="fill: gray;"></path><path d="M0,106.05000000000001h287.59999999999997v18.900000000000002h-287.59999999999997Z" style="fill: gray;"></path><path d="M0,43.05000000000001h355.6v18.900000000000002h-355.6Z" style="fill: gray;"></path><path d="M0,526.05h198v18.900000000000002h-198Z" style="fill: gray;"></path></g><g class="mark-group role-axis"><g transform="translate(0.5,966.5)"><path class="background" d="M0,0h0v0h0Z" style="pointer-events: none; fill: none;"></path><g><g class="mark-rule role-axis-tick" style="pointer-events: none;"><line transform="translate(0,0)" x2="0" y2="5" style="fill: none; stroke: #888; stroke-width: 1; opacity: 1;"></line><line transform="translate(40,0)" x2="0" y2="5" style="fill: none; stroke: #888; stroke-width: 1; opacity: 1;"></line><line transform="translate(80,0)" x2="0" y2="5" style="fill: none; stroke: #888; stroke-width: 1; opacity: 1;"></line><line transform="translate(120,0)" x2="0" y2="5" style="fill: none; stroke: #888; stroke-width: 1; opacity: 1;"></line><line transform="translate(160,0)" x2="0" y2="5" style="fill: none; stroke: #888; stroke-width: 1; opacity: 1;"></line><line transform="translate(200,0)" x2="0" y2="5" style="fill: none; stroke: #888; stroke-width: 1; opacity: 1;"></line><line transform="translate(240,0)" x2="0" y2="5" style="fill: none; stroke: #888; stroke-width: 1; opacity: 1;"></line><line transform="translate(280,0)" x2="0" y2="5" style="fill: none; stroke: #888; stroke-width: 1; opacity: 1;"></line><line transform="translate(320,0)" x2="0" y2="5" style="fill: none; stroke: #888; stroke-width: 1; opacity: 1;"></line><line transform="translate(360,0)" x2="0" y2="5" style="fill: none; stroke: #888; stroke-width: 1; opacity: 1;"></line><line transform="translate(400,0)" x2="0" y2="5" style="fill: none; stroke: #888; stroke-width: 1; opacity: 1;"></line></g><g class="mark-text role-axis-label" style="pointer-events: none;"><text text-anchor="start" transform="translate(0,15)" style="font: 10px sans-serif; fill: #000; opacity: 1;">0</text><text text-anchor="middle" transform="translate(40,15)" style="font: 10px sans-serif; fill: #000; opacity: 1;">200</text><text text-anchor="middle" transform="translate(80,15)" style="font: 10px sans-serif; fill: #000; opacity: 1;">400</text><text text-anchor="middle" transform="translate(120,15)" style="font: 10px sans-serif; fill: #000; opacity: 1;">600</text><text text-anchor="middle" transform="translate(160,15)" style="font: 10px sans-serif; fill: #000; opacity: 1;">800</text><text text-anchor="middle" transform="translate(200,15)" style="font: 10px sans-serif; fill: #000; opacity: 1;">1,000</text><text text-anchor="middle" transform="translate(240,15)" style="font: 10px sans-serif; fill: #000; opacity: 1;">1,200</text><text text-anchor="middle" transform="translate(280,15)" style="font: 10px sans-serif; fill: #000; opacity: 1;">1,400</text><text text-anchor="middle" transform="translate(320,15)" style="font: 10px sans-serif; fill: #000; opacity: 1;">1,600</text><text text-anchor="middle" transform="translate(360,15)" style="font: 10px sans-serif; fill: #000; opacity: 1;">1,800</text><text text-anchor="end" transform="translate(400,15)" style="font: 10px sans-serif; fill: #000; opacity: 1;">2,000</text></g><g class="mark-rule role-axis-domain" style="pointer-events: none;"><line transform="translate(0,0)" x2="400" y2="0" style="fill: none; stroke: #888; stroke-width: 1; opacity: 1;"></line></g></g></g></g><g class="mark-group role-axis"><g transform="translate(0.5,0.5)"><path class="background" d="M0,0h0v0h0Z" style="pointer-events: none; fill: none;"></path><g><g class="mark-rule role-axis-tick" style="pointer-events: none;"><line transform="translate(0,10)" x2="-5" y2="0" style="fill: none; stroke: #888; stroke-width: 1; opacity: 1;"></line><line transform="translate(0,31)" x2="-5" y2="0" style="fill: none; stroke: #888; stroke-width: 1; opacity: 1;"></line><line transform="translate(0,52)" x2="-5" y2="0" style="fill: none; stroke: #888; stroke-width: 1; opacity: 1;"></line><line transform="translate(0,73)" x2="-5" y2="0" style="fill: none; stroke: #888; stroke-width: 1; opacity: 1;"></line><line transform="translate(0,94)" x2="-5" y2="0" style="fill: none; stroke: #888; stroke-width: 1; opacity: 1;"></line><line transform="translate(0,115)" x2="-5" y2="0" style="fill: none; stroke: #888; stroke-width: 1; opacity: 1;"></line><line transform="translate(0,136)" x2="-5" y2="0" style="fill: none; stroke: #888; stroke-width: 1; opacity: 1;"></line><line transform="translate(0,157)" x2="-5" y2="0" style="fill: none; stroke: #888; stroke-width: 1; opacity: 1;"></line><line transform="translate(0,178)" x2="-5" y2="0" style="fill: none; stroke: #888; stroke-width: 1; opacity: 1;"></line><line transform="translate(0,199)" x2="-5" y2="0" style="fill: none; stroke: #888; stroke-width: 1; opacity: 1;"></line><line transform="translate(0,220)" x2="-5" y2="0" style="fill: none; stroke: #888; stroke-width: 1; opacity: 1;"></line><line transform="translate(0,241)" x2="-5" y2="0" style="fill: none; stroke: #888; stroke-width: 1; opacity: 1;"></line><line transform="translate(0,262)" x2="-5" y2="0" style="fill: none; stroke: #888; stroke-width: 1; opacity: 1;"></line><line transform="translate(0,283)" x2="-5" y2="0" style="fill: none; stroke: #888; stroke-width: 1; opacity: 1;"></line><line transform="translate(0,304)" x2="-5" y2="0" style="fill: none; stroke: #888; stroke-width: 1; opacity: 1;"></line><line transform="translate(0,325)" x2="-5" y2="0" style="fill: none; stroke: #888; stroke-width: 1; opacity: 1;"></line><line transform="translate(0,346)" x2="-5" y2="0" style="fill: none; stroke: #888; stroke-width: 1; opacity: 1;"></line><line transform="translate(0,367)" x2="-5" y2="0" style="fill: none; stroke: #888; stroke-width: 1; opacity: 1;"></line><line transform="translate(0,388)" x2="-5" y2="0" style="fill: none; stroke: #888; stroke-width: 1; opacity: 1;"></line><line transform="translate(0,409)" x2="-5" y2="0" style="fill: none; stroke: #888; stroke-width: 1; opacity: 1;"></line><line transform="translate(0,430)" x2="-5" y2="0" style="fill: none; stroke: #888; stroke-width: 1; opacity: 1;"></line><line transform="translate(0,451)" x2="-5" y2="0" style="fill: none; stroke: #888; stroke-width: 1; opacity: 1;"></line><line transform="translate(0,472)" x2="-5" y2="0" style="fill: none; stroke: #888; stroke-width: 1; opacity: 1;"></line><line transform="translate(0,493)" x2="-5" y2="0" style="fill: none; stroke: #888; stroke-width: 1; opacity: 1;"></line><line transform="translate(0,514)" x2="-5" y2="0" style="fill: none; stroke: #888; stroke-width: 1; opacity: 1;"></line><line transform="translate(0,535)" x2="-5" y2="0" style="fill: none; stroke: #888; stroke-width: 1; opacity: 1;"></line><line transform="translate(0,556)" x2="-5" y2="0" style="fill: none; stroke: #888; stroke-width: 1; opacity: 1;"></line><line transform="translate(0,577)" x2="-5" y2="0" style="fill: none; stroke: #888; stroke-width: 1; opacity: 1;"></line><line transform="translate(0,598)" x2="-5" y2="0" style="fill: none; stroke: #888; stroke-width: 1; opacity: 1;"></line><line transform="translate(0,619)" x2="-5" y2="0" style="fill: none; stroke: #888; stroke-width: 1; opacity: 1;"></line><line transform="translate(0,640)" x2="-5" y2="0" style="fill: none; stroke: #888; stroke-width: 1; opacity: 1;"></line><line transform="translate(0,661)" x2="-5" y2="0" style="fill: none; stroke: #888; stroke-width: 1; opacity: 1;"></line><line transform="translate(0,682)" x2="-5" y2="0" style="fill: none; stroke: #888; stroke-width: 1; opacity: 1;"></line><line transform="translate(0,703)" x2="-5" y2="0" style="fill: none; stroke: #888; stroke-width: 1; opacity: 1;"></line><line transform="translate(0,724)" x2="-5" y2="0" style="fill: none; stroke: #888; stroke-width: 1; opacity: 1;"></line><line transform="translate(0,745)" x2="-5" y2="0" style="fill: none; stroke: #888; stroke-width: 1; opacity: 1;"></line><line transform="translate(0,766)" x2="-5" y2="0" style="fill: none; stroke: #888; stroke-width: 1; opacity: 1;"></line><line transform="translate(0,787)" x2="-5" y2="0" style="fill: none; stroke: #888; stroke-width: 1; opacity: 1;"></line><line transform="translate(0,808)" x2="-5" y2="0" style="fill: none; stroke: #888; stroke-width: 1; opacity: 1;"></line><line transform="translate(0,829)" x2="-5" y2="0" style="fill: none; stroke: #888; stroke-width: 1; opacity: 1;"></line><line transform="translate(0,850)" x2="-5" y2="0" style="fill: none; stroke: #888; stroke-width: 1; opacity: 1;"></line><line transform="translate(0,871)" x2="-5" y2="0" style="fill: none; stroke: #888; stroke-width: 1; opacity: 1;"></line><line transform="translate(0,892)" x2="-5" y2="0" style="fill: none; stroke: #888; stroke-width: 1; opacity: 1;"></line><line transform="translate(0,913)" x2="-5" y2="0" style="fill: none; stroke: #888; stroke-width: 1; opacity: 1;"></line><line transform="translate(0,934)" x2="-5" y2="0" style="fill: none; stroke: #888; stroke-width: 1; opacity: 1;"></line><line transform="translate(0,955)" x2="-5" y2="0" style="fill: none; stroke: #888; stroke-width: 1; opacity: 1;"></line></g><g class="mark-text role-axis-label" style="pointer-events: none;"><text text-anchor="end" transform="translate(-7,12.500000000000012)" style="font: 10px sans-serif; fill: #000; opacity: 1;">Ritz Carlton</text><text text-anchor="end" transform="translate(-7,33.500000000000014)" style="font: 10px sans-serif; fill: #000; opacity: 1;">Tomahawk Lofts</text><text text-anchor="end" transform="translate(-7,54.500000000000014)" style="font: 10px sans-serif; fill: #000; opacity: 1;">Toy Warehouse</text><text text-anchor="end" transform="translate(-7,75.50000000000001)" style="font: 10px sans-serif; fill: #000; opacity: 1;">Molino Street Lofts</text><text text-anchor="end" transform="translate(-7,96.50000000000001)" style="font: 10px sans-serif; fill: #000; opacity: 1;">Grand Lofts</text><text text-anchor="end" transform="translate(-7,117.50000000000001)" style="font: 10px sans-serif; fill: #000; opacity: 1;">Toy Factory</text><text text-anchor="end" transform="translate(-7,138.5)" style="font: 10px sans-serif; fill: #000; opacity: 1;">Flower Street Lofts</text><text text-anchor="end" transform="translate(-7,159.5)" style="font: 10px sans-serif; fill: #000; opacity: 1;">940 E. 2nd Street</text><text text-anchor="end" transform="translate(-7,180.5)" style="font: 10px sans-serif; fill: #000; opacity: 1;">Promenade West</text><text text-anchor="end" transform="translate(-7,201.5)" style="font: 10px sans-serif; fill: #000; opacity: 1;">Sky Lofts</text><text text-anchor="end" transform="translate(-7,222.5)" style="font: 10px sans-serif; fill: #000; opacity: 1;">Barker Block Lofts</text><text text-anchor="end" transform="translate(-7,243.5)" style="font: 10px sans-serif; fill: #000; opacity: 1;">Mura</text><text text-anchor="end" transform="translate(-7,264.5)" style="font: 10px sans-serif; fill: #000; opacity: 1;">Eastern Columbia</text><text text-anchor="end" transform="translate(-7,285.5)" style="font: 10px sans-serif; fill: #000; opacity: 1;">Skyline</text><text text-anchor="end" transform="translate(-7,306.5)" style="font: 10px sans-serif; fill: #000; opacity: 1;">Evo</text><text text-anchor="end" transform="translate(-7,327.5)" style="font: 10px sans-serif; fill: #000; opacity: 1;">Gallery Lofts</text><text text-anchor="end" transform="translate(-7,348.5)" style="font: 10px sans-serif; fill: #000; opacity: 1;">Biscuit Company Lofts</text><text text-anchor="end" transform="translate(-7,369.5)" style="font: 10px sans-serif; fill: #000; opacity: 1;">Beacon Lofts</text><text text-anchor="end" transform="translate(-7,390.5)" style="font: 10px sans-serif; fill: #000; opacity: 1;">Elleven Lofts</text><text text-anchor="end" transform="translate(-7,411.5)" style="font: 10px sans-serif; fill: #000; opacity: 1;">Ten50</text><text text-anchor="end" transform="translate(-7,432.5)" style="font: 10px sans-serif; fill: #000; opacity: 1;">Promenade</text><text text-anchor="end" transform="translate(-7,453.5)" style="font: 10px sans-serif; fill: #000; opacity: 1;">Barker Block Warehouse</text><text text-anchor="end" transform="translate(-7,474.5)" style="font: 10px sans-serif; fill: #000; opacity: 1;">El Dorado</text><text text-anchor="end" transform="translate(-7,495.5)" style="font: 10px sans-serif; fill: #000; opacity: 1;">Concerto Lofts</text><text text-anchor="end" transform="translate(-7,516.5)" style="font: 10px sans-serif; fill: #000; opacity: 1;">Pan American</text><text text-anchor="end" transform="translate(-7,537.5)" style="font: 10px sans-serif; fill: #000; opacity: 1;">Vero</text><text text-anchor="end" transform="translate(-7,558.5)" style="font: 10px sans-serif; fill: #000; opacity: 1;">Luma Lofts</text><text text-anchor="end" transform="translate(-7,579.5)" style="font: 10px sans-serif; fill: #000; opacity: 1;">Teramachi</text><text text-anchor="end" transform="translate(-7,600.5)" style="font: 10px sans-serif; fill: #000; opacity: 1;">Douglas</text><text text-anchor="end" transform="translate(-7,621.5)" style="font: 10px sans-serif; fill: #000; opacity: 1;">Metropolis Tower I</text><text text-anchor="end" transform="translate(-7,642.5)" style="font: 10px sans-serif; fill: #000; opacity: 1;">655 Hope</text><text text-anchor="end" transform="translate(-7,663.5)" style="font: 10px sans-serif; fill: #000; opacity: 1;">Savoy</text><text text-anchor="end" transform="translate(-7,684.5)" style="font: 10px sans-serif; fill: #000; opacity: 1;">Santee Village: Eckardt</text><text text-anchor="end" transform="translate(-7,705.5)" style="font: 10px sans-serif; fill: #000; opacity: 1;">Tokyo Villa</text><text text-anchor="end" transform="translate(-7,726.5)" style="font: 10px sans-serif; fill: #000; opacity: 1;">Higgins</text><text text-anchor="end" transform="translate(-7,747.5)" style="font: 10px sans-serif; fill: #000; opacity: 1;">The Rowan</text><text text-anchor="end" transform="translate(-7,768.5)" style="font: 10px sans-serif; fill: #000; opacity: 1;">Market Lofts</text><text text-anchor="end" transform="translate(-7,789.5)" style="font: 10px sans-serif; fill: #000; opacity: 1;">110 Wilshire</text><text text-anchor="end" transform="translate(-7,810.5)" style="font: 10px sans-serif; fill: #000; opacity: 1;">Little Tokyo Lofts</text><text text-anchor="end" transform="translate(-7,831.5)" style="font: 10px sans-serif; fill: #000; opacity: 1;">Metropolis Tower II</text><text text-anchor="end" transform="translate(-7,852.5)" style="font: 10px sans-serif; fill: #000; opacity: 1;">Shy Barry Grand</text><text text-anchor="end" transform="translate(-7,873.5)" style="font: 10px sans-serif; fill: #000; opacity: 1;">Bunker Hill Tower</text><text text-anchor="end" transform="translate(-7,894.5)" style="font: 10px sans-serif; fill: #000; opacity: 1;">Santee Village: Cornell</text><text text-anchor="end" transform="translate(-7,915.5)" style="font: 10px sans-serif; fill: #000; opacity: 1;">Bartlett</text><text text-anchor="end" transform="translate(-7,936.5)" style="font: 10px sans-serif; fill: #000; opacity: 1;">Library Court</text><text text-anchor="end" transform="translate(-7,957.5)" style="font: 10px sans-serif; fill: #000; opacity: 1;">Textile Building</text></g><g class="mark-rule role-axis-domain" style="pointer-events: none;"><line transform="translate(0,0)" x2="0" y2="966" style="fill: none; stroke: #888; stroke-width: 1; opacity: 1;"></line></g></g></g></g></g></g></g></g></svg>